<?xml version="1.0" standalone="no"?>
<!DOCTYPE svg PUBLIC "-//W3C//DTD SVG 20010904//EN"
 "http://www.w3.org/TR/2001/REC-SVG-20010904/DTD/svg10.dtd">
<svg version="1.0" xmlns="http://www.w3.org/2000/svg"
 width="243.000000pt" height="243.000000pt" viewBox="0 0 243.000000 243.000000"
 preserveAspectRatio="xMidYMid meet">
<metadata>
Created by potrace 1.14, written by Peter Selinger 2001-2017
</metadata>
<g transform="translate(0.000000,243.000000) scale(0.100000,-0.100000)"
fill="#000000" stroke="none">
<path d="M1979 2316 c-2 -2 -35 -7 -72 -11 -37 -3 -76 -8 -85 -10 -17 -3 -90
-13 -150 -20 -18 -2 -45 -6 -60 -9 -15 -3 -43 -7 -62 -10 -32 -5 -269 -48
-332 -60 -16 -4 -40 -8 -55 -11 -93 -19 -389 -101 -503 -141 -229 -79 -396
-174 -472 -267 -43 -51 -85 -164 -69 -180 6 -6 11 -19 11 -29 0 -34 40 -104
88 -153 49 -52 133 -115 150 -115 6 0 12 -3 14 -7 4 -11 167 -90 200 -98 15
-4 31 -12 37 -18 12 -16 31 -87 23 -87 -14 0 -87 -76 -98 -100 -24 -53 29
-104 118 -116 l48 -7 20 -64 c11 -36 22 -75 24 -87 2 -11 21 -75 41 -141 20
-66 38 -128 40 -138 2 -9 6 -21 9 -25 3 -5 7 -21 10 -36 9 -51 61 -139 116
-195 73 -75 165 -127 261 -147 31 -6 158 -6 184 0 11 2 27 5 36 5 26 1 119 69
175 127 101 105 141 240 107 357 l-14 48 70 147 c38 81 75 165 82 187 14 45
18 154 7 203 -8 33 -7 34 50 58 136 60 255 133 305 187 48 54 33 110 -38 137
-28 11 -242 15 -290 6 -11 -2 -47 -7 -80 -11 -32 -4 -68 -9 -80 -11 -11 -2
-33 -7 -50 -9 -16 -3 -70 -15 -120 -25 -49 -11 -102 -23 -117 -26 -30 -6 -196
-51 -307 -84 -72 -21 -74 -21 -84 -4 -16 30 -78 88 -127 121 -92 62 -222 93
-333 79 -82 -11 -82 -10 -53 -112 29 -99 31 -114 15 -114 -16 0 -190 89 -206
106 -8 8 -18 14 -22 14 -13 0 -101 91 -115 118 -65 131 32 252 306 382 195 92
417 160 893 276 50 12 307 64 313 63 4 -1 9 0 12 1 8 3 42 9 85 15 104 16 169
31 159 37 -6 4 -13 6 -15 4z m154 -904 c9 -1 17 -5 17 -9 0 -21 -263 -163
-301 -163 -9 0 -28 17 -43 38 -14 21 -40 51 -56 67 -17 16 -30 32 -30 35 0 7
63 17 180 27 36 3 66 6 67 7 3 2 136 0 166 -2z m-563 -59 c-1 -5 -22 -51 -48
-105 l-47 -96 -158 2 c-86 1 -161 6 -166 12 -4 5 -13 24 -19 41 l-11 33 78 24
c71 23 179 52 226 62 11 3 45 11 75 18 68 18 70 18 70 9z m-165 -348 c-47
-104 -80 -165 -90 -165 -20 0 -85 21 -86 28 0 7 -2 12 -13 57 -2 11 -12 43
-20 70 -9 28 -16 52 -16 55 0 3 56 6 124 5 l124 0 -23 -50z m-727 -27 c6 -17
10 -34 7 -36 -6 -6 -46 5 -65 18 -13 9 -12 13 9 30 31 26 35 26 49 -12z m603
-188 c16 -9 17 -14 8 -31 -12 -23 -23 -17 -34 19 -7 25 -3 27 26 12z m426
-391 c-7 -81 -43 -162 -104 -229 -49 -54 -101 -95 -110 -87 -3 4 11 39 30 79
20 40 66 136 102 213 61 128 68 138 77 115 5 -14 8 -55 5 -91z"/>
</g>
</svg>
