<?xml version="1.0" standalone="no"?>
<!DOCTYPE svg PUBLIC "-//W3C//DTD SVG 20010904//EN"
 "http://www.w3.org/TR/2001/REC-SVG-20010904/DTD/svg10.dtd">
<svg version="1.0" xmlns="http://www.w3.org/2000/svg"
 width="4501.000000pt" height="4501.000000pt" viewBox="0 0 4501.000000 4501.000000"
 preserveAspectRatio="xMidYMid meet">
<metadata>
Created by potrace 1.14, written by Peter Selinger 2001-2017
</metadata>
<g transform="translate(0.000000,4501.000000) scale(0.100000,-0.100000)"
fill="#000000" stroke="none">
<path d="M37498 43425 c-3 -2 -29 -5 -168 -20 -49 -5 -156 -16 -200 -21 -77
-9 -123 -14 -175 -19 -27 -3 -72 -8 -100 -11 -27 -3 -61 -7 -75 -9 -41 -4
-142 -15 -180 -20 -47 -5 -149 -17 -180 -20 -14 -1 -54 -6 -90 -10 -36 -4 -76
-9 -90 -10 -41 -4 -176 -20 -265 -31 -27 -3 -61 -7 -75 -9 -14 -1 -47 -5 -75
-9 -27 -3 -70 -8 -95 -11 -43 -4 -95 -11 -170 -20 -47 -6 -129 -17 -160 -20
-14 -2 -52 -6 -85 -10 -33 -4 -71 -9 -85 -10 -14 -2 -47 -6 -75 -9 -27 -4 -72
-9 -100 -12 -27 -3 -59 -7 -70 -9 -130 -19 -173 -24 -231 -30 -28 -3 -61 -8
-75 -10 -13 -3 -48 -7 -79 -10 -31 -3 -66 -7 -78 -10 -13 -2 -50 -7 -83 -10
-33 -4 -69 -8 -80 -10 -11 -2 -47 -7 -80 -10 -33 -4 -70 -8 -82 -11 -22 -4
-88 -13 -137 -19 -81 -9 -148 -18 -165 -21 -11 -3 -40 -7 -65 -10 -25 -2 -56
-7 -70 -9 -14 -2 -48 -7 -76 -10 -28 -3 -61 -8 -75 -10 -13 -3 -46 -7 -74 -10
-27 -3 -61 -7 -75 -10 -50 -8 -146 -21 -221 -30 -25 -3 -55 -7 -66 -9 -11 -3
-44 -7 -73 -11 -29 -4 -62 -8 -73 -11 -11 -2 -43 -6 -71 -10 -28 -3 -62 -7
-76 -10 -14 -2 -41 -6 -60 -8 -19 -3 -53 -8 -75 -11 -22 -3 -55 -8 -74 -10
-19 -2 -48 -7 -65 -9 -54 -9 -100 -16 -141 -21 -55 -8 -94 -14 -135 -20 -19
-3 -53 -8 -75 -11 -62 -8 -98 -13 -120 -18 -11 -2 -45 -7 -76 -10 -31 -4 -67
-9 -80 -12 -13 -2 -40 -6 -59 -9 -19 -2 -48 -6 -65 -9 -16 -3 -50 -8 -75 -11
-25 -3 -57 -8 -71 -10 -14 -3 -41 -7 -60 -9 -19 -3 -47 -7 -64 -10 -60 -9
-111 -17 -140 -21 -16 -2 -59 -8 -95 -14 -36 -6 -81 -13 -100 -15 -19 -3 -50
-7 -67 -10 -61 -11 -88 -15 -138 -22 -27 -3 -59 -8 -70 -10 -10 -2 -37 -6 -60
-9 -38 -6 -67 -10 -127 -20 -55 -9 -84 -14 -123 -20 -23 -3 -52 -8 -65 -10
-14 -3 -45 -8 -70 -11 -25 -3 -56 -7 -70 -10 -14 -2 -41 -6 -60 -9 -19 -3 -46
-7 -60 -10 -14 -3 -43 -8 -65 -10 -22 -3 -51 -7 -65 -10 -13 -2 -42 -7 -65
-11 -22 -3 -49 -7 -60 -9 -11 -2 -38 -6 -60 -9 -22 -3 -51 -8 -65 -11 -13 -2
-42 -7 -65 -10 -22 -4 -52 -8 -67 -11 -16 -2 -43 -6 -60 -9 -18 -3 -44 -7 -58
-10 -34 -6 -79 -14 -126 -20 -55 -8 -84 -13 -124 -20 -19 -3 -47 -8 -62 -10
-16 -3 -43 -8 -60 -11 -35 -6 -45 -8 -123 -19 -27 -4 -59 -9 -70 -11 -11 -3
-35 -7 -54 -10 -34 -4 -66 -10 -106 -18 -11 -2 -40 -7 -65 -10 -25 -3 -56 -8
-70 -11 -13 -2 -40 -7 -60 -10 -20 -3 -45 -7 -57 -9 -11 -3 -38 -7 -59 -11
-49 -7 -84 -13 -154 -25 -30 -5 -68 -12 -85 -14 -16 -3 -46 -8 -65 -12 -19 -3
-45 -8 -57 -9 -25 -3 -96 -15 -128 -21 -10 -2 -37 -6 -60 -10 -22 -3 -62 -10
-90 -15 -27 -6 -63 -12 -80 -14 -16 -3 -52 -9 -80 -14 -27 -6 -68 -13 -90 -16
-23 -3 -50 -7 -62 -9 -11 -3 -36 -7 -54 -10 -19 -3 -43 -7 -54 -10 -11 -2 -40
-7 -65 -11 -25 -4 -52 -9 -60 -10 -8 -1 -35 -6 -60 -10 -25 -4 -54 -9 -65 -12
-11 -2 -31 -6 -45 -8 -14 -2 -41 -7 -60 -10 -19 -4 -44 -8 -55 -10 -11 -1 -35
-6 -52 -9 -32 -6 -64 -11 -128 -22 -16 -3 -37 -7 -45 -9 -8 -3 -33 -7 -55 -10
-22 -3 -51 -7 -65 -10 -14 -3 -38 -8 -55 -10 -16 -3 -64 -12 -105 -20 -41 -8
-91 -16 -110 -19 -19 -3 -45 -8 -56 -10 -12 -2 -37 -7 -55 -10 -19 -3 -44 -8
-55 -10 -12 -2 -37 -7 -55 -10 -19 -3 -44 -8 -55 -10 -12 -2 -37 -7 -55 -10
-19 -3 -44 -8 -55 -10 -12 -2 -37 -7 -55 -10 -19 -3 -45 -8 -59 -11 -14 -3
-41 -8 -60 -11 -161 -29 -208 -38 -260 -49 -14 -2 -38 -7 -55 -10 -16 -3 -41
-7 -55 -10 -14 -3 -37 -7 -52 -10 -16 -3 -40 -7 -55 -10 -16 -3 -39 -7 -53
-10 -14 -3 -36 -7 -50 -10 -14 -2 -38 -7 -55 -9 -16 -3 -41 -8 -55 -11 -14 -3
-38 -7 -55 -10 -16 -3 -43 -8 -60 -12 -16 -3 -37 -7 -45 -8 -8 -1 -28 -5 -45
-9 -16 -3 -41 -8 -55 -11 -14 -3 -36 -7 -50 -10 -14 -2 -38 -7 -55 -10 -16 -3
-41 -7 -55 -10 -14 -3 -37 -7 -53 -10 -15 -3 -60 -12 -100 -21 -39 -8 -87 -17
-106 -20 -18 -3 -43 -8 -55 -10 -11 -3 -34 -7 -50 -9 -15 -2 -35 -7 -45 -9 -9
-3 -29 -8 -46 -11 -16 -2 -41 -7 -55 -10 -14 -3 -36 -7 -50 -10 -14 -3 -36 -7
-50 -10 -14 -3 -38 -8 -55 -10 -16 -3 -37 -8 -45 -10 -8 -2 -28 -7 -45 -10
-16 -2 -41 -7 -55 -10 -14 -3 -36 -7 -50 -10 -14 -3 -36 -7 -50 -10 -14 -3
-36 -8 -50 -10 -14 -2 -36 -7 -50 -10 -14 -3 -36 -8 -50 -11 -14 -2 -36 -7
-50 -9 -60 -12 -77 -16 -104 -21 -16 -2 -32 -6 -35 -8 -3 -2 -23 -7 -45 -10
-21 -4 -82 -15 -135 -26 -54 -11 -106 -22 -117 -24 -10 -3 -55 -12 -99 -21
-44 -9 -89 -19 -100 -21 -11 -2 -29 -6 -40 -8 -59 -13 -182 -38 -198 -42 -10
-2 -26 -5 -35 -8 -9 -3 -35 -8 -57 -11 -22 -4 -48 -8 -57 -11 -9 -3 -26 -7
-37 -9 -12 -3 -31 -7 -43 -10 -13 -3 -34 -7 -48 -10 -14 -3 -34 -7 -45 -9 -11
-3 -54 -12 -95 -21 -41 -9 -84 -18 -95 -21 -11 -2 -33 -7 -50 -9 -16 -3 -38
-8 -47 -11 -9 -3 -27 -7 -40 -9 -20 -4 -124 -26 -138 -30 -5 -1 -100 -22 -140
-31 -14 -3 -34 -7 -45 -9 -11 -3 -30 -7 -43 -9 -13 -3 -31 -7 -40 -10 -9 -3
-28 -7 -42 -10 -14 -3 -36 -8 -50 -11 -14 -3 -38 -8 -55 -10 -16 -3 -38 -8
-47 -11 -9 -3 -27 -7 -40 -10 -40 -9 -62 -14 -85 -19 -13 -3 -33 -7 -45 -10
-13 -2 -35 -7 -50 -11 -15 -3 -30 -5 -33 -5 -2 0 -19 -5 -37 -10 -18 -6 -44
-12 -58 -15 -14 -3 -63 -14 -110 -25 -47 -11 -94 -22 -105 -24 -17 -4 -49 -11
-130 -29 -22 -5 -109 -25 -137 -32 -10 -2 -28 -6 -40 -9 -13 -2 -35 -7 -50
-11 -15 -3 -30 -5 -33 -5 -2 0 -19 -5 -37 -10 -40 -12 -45 -14 -133 -33 -38
-9 -77 -18 -85 -20 -8 -3 -37 -10 -65 -16 -27 -6 -59 -14 -70 -16 -11 -3 -31
-7 -44 -10 -14 -3 -28 -7 -31 -9 -4 -2 -20 -7 -36 -9 -52 -10 -75 -15 -94 -21
-19 -6 -45 -12 -90 -21 -14 -3 -43 -10 -65 -16 -22 -5 -48 -12 -57 -14 -10 -2
-27 -6 -38 -9 -11 -3 -29 -7 -40 -10 -11 -3 -28 -7 -37 -9 -30 -7 -472 -116
-578 -142 -55 -14 -109 -28 -120 -30 -11 -3 -24 -6 -30 -8 -5 -2 -23 -6 -40
-10 -16 -4 -48 -12 -69 -17 -22 -6 -49 -13 -60 -15 -38 -9 -51 -12 -51 -14 0
-1 -9 -3 -20 -5 -11 -2 -83 -20 -160 -40 -77 -20 -147 -38 -155 -40 -8 -2 -78
-19 -155 -39 -77 -20 -150 -39 -162 -41 -12 -3 -34 -10 -48 -15 -14 -5 -25 -7
-25 -5 0 3 -16 -1 -35 -9 -19 -8 -35 -13 -35 -11 0 2 -18 -2 -40 -10 -22 -8
-40 -12 -40 -10 0 3 -11 0 -25 -5 -14 -5 -36 -12 -48 -14 -23 -4 -184 -47
-251 -66 -21 -7 -47 -13 -57 -15 -10 -2 -52 -13 -94 -25 -42 -12 -84 -23 -93
-25 -9 -1 -37 -9 -62 -16 -25 -7 -49 -13 -55 -15 -5 -1 -30 -7 -55 -15 -60
-17 -62 -17 -88 -23 -12 -3 -26 -7 -30 -10 -5 -3 -19 -7 -33 -9 -13 -3 -91
-24 -174 -47 -82 -23 -157 -43 -165 -45 -8 -2 -15 -4 -15 -5 0 -1 -11 -4 -25
-6 -13 -2 -72 -18 -130 -35 -189 -55 -234 -68 -280 -80 -57 -16 -55 -15 -120
-34 -30 -9 -62 -17 -70 -20 -8 -2 -27 -8 -42 -14 -16 -6 -28 -8 -28 -6 0 2
-12 0 -27 -6 -16 -6 -35 -12 -43 -14 -8 -2 -46 -13 -85 -25 -38 -12 -81 -23
-94 -26 -14 -3 -28 -7 -33 -10 -4 -3 -16 -7 -25 -9 -10 -2 -58 -16 -108 -31
-49 -14 -94 -27 -100 -28 -5 -2 -37 -11 -70 -21 -33 -11 -62 -19 -65 -20 -3 0
-11 -4 -17 -8 -7 -5 -13 -6 -13 -4 0 3 -44 -9 -98 -25 -131 -41 -223 -68 -244
-73 -9 -2 -27 -9 -40 -16 -13 -7 -23 -11 -23 -9 0 2 -11 0 -25 -4 -62 -18
-200 -60 -250 -76 -30 -10 -102 -32 -160 -50 -58 -17 -123 -38 -145 -47 -22
-8 -41 -15 -42 -14 -8 2 -673 -212 -888 -285 -71 -25 -137 -46 -145 -48 -37
-9 -126 -40 -135 -47 -6 -4 -22 -10 -35 -13 -23 -4 -152 -47 -190 -63 -8 -3
-17 -7 -20 -8 -95 -29 -640 -220 -855 -301 -11 -4 -24 -8 -30 -10 -11 -2 -198
-72 -350 -130 -50 -19 -94 -34 -97 -34 -3 0 -22 -7 -42 -15 -20 -8 -39 -16
-43 -16 -5 -1 -17 -6 -28 -12 -11 -6 -24 -12 -30 -13 -13 -2 -291 -109 -440
-169 -11 -5 -22 -9 -25 -10 -16 -4 -415 -161 -445 -175 -11 -5 -60 -25 -110
-45 -49 -20 -100 -40 -112 -45 -13 -6 -33 -14 -45 -20 -13 -5 -63 -26 -113
-46 -49 -20 -118 -49 -153 -65 -34 -16 -65 -29 -67 -29 -2 0 -30 -12 -62 -26
-74 -33 -101 -45 -193 -84 -41 -18 -103 -46 -138 -61 -34 -16 -64 -29 -67 -29
-2 0 -32 -13 -67 -29 -35 -16 -85 -39 -113 -51 -76 -34 -207 -94 -345 -158
-86 -39 -228 -106 -374 -176 -65 -32 -128 -61 -140 -66 -32 -14 -650 -330
-741 -379 -99 -54 -155 -85 -270 -148 -168 -94 -190 -106 -227 -130 -21 -12
-40 -23 -43 -23 -2 0 -35 -18 -72 -40 -38 -22 -75 -45 -83 -49 -206 -122 -276
-166 -278 -173 -2 -4 -8 -8 -13 -8 -5 0 -33 -15 -62 -34 -28 -18 -77 -49 -107
-67 -214 -133 -856 -572 -890 -609 -3 -3 -39 -30 -80 -60 -77 -55 -213 -159
-240 -183 -8 -7 -37 -31 -65 -52 -27 -21 -54 -44 -60 -50 -5 -6 -17 -16 -26
-21 -9 -5 -40 -29 -69 -54 -29 -25 -87 -74 -129 -110 -42 -35 -121 -105 -176
-155 -55 -49 -105 -94 -111 -100 -72 -61 -454 -450 -576 -586 -197 -219 -568
-701 -568 -738 0 -5 -3 -11 -8 -13 -13 -5 -121 -181 -212 -343 -55 -97 -208
-413 -214 -440 -1 -5 -10 -28 -20 -50 -10 -22 -24 -58 -33 -80 -8 -22 -18 -49
-23 -60 -15 -37 -44 -120 -46 -130 -1 -5 -14 -48 -29 -95 -43 -137 -52 -170
-75 -270 -12 -52 -24 -103 -26 -113 -2 -10 -5 -26 -8 -35 -3 -9 -7 -29 -10
-45 -3 -15 -10 -53 -15 -85 -17 -96 -19 -109 -36 -242 -25 -194 -25 -713 0
-840 2 -12 7 -48 10 -81 4 -33 8 -70 11 -82 2 -12 6 -38 9 -57 3 -19 7 -46 10
-60 3 -14 7 -38 10 -55 22 -145 144 -595 192 -705 3 -8 7 -20 8 -26 2 -6 10
-27 18 -45 8 -19 20 -50 28 -69 7 -19 23 -60 36 -90 13 -30 28 -64 32 -75 40
-95 232 -471 307 -599 20 -34 38 -67 42 -73 4 -7 41 -65 81 -130 214 -338 475
-679 754 -987 40 -43 83 -90 96 -105 59 -66 285 -291 370 -370 52 -47 106 -98
120 -112 45 -45 271 -241 406 -352 72 -59 137 -113 145 -120 8 -8 51 -42 95
-76 44 -34 87 -68 95 -75 30 -24 265 -201 286 -216 12 -8 111 -78 221 -155
260 -184 512 -351 753 -500 52 -32 111 -68 130 -80 113 -72 736 -435 745 -435
2 0 42 -22 90 -50 48 -28 88 -50 90 -50 2 0 34 -17 72 -39 87 -49 171 -94 523
-280 120 -64 559 -283 690 -344 41 -19 120 -56 175 -82 88 -41 138 -64 155
-70 3 -1 37 -17 75 -34 39 -18 90 -42 115 -53 25 -11 70 -31 100 -45 30 -14
69 -31 85 -38 17 -7 77 -34 135 -60 109 -48 251 -109 260 -111 3 0 19 -7 35
-14 17 -7 32 -14 35 -15 3 -1 31 -13 64 -28 32 -15 61 -27 64 -27 5 0 122 -48
207 -85 43 -19 552 -221 600 -238 22 -8 119 -45 215 -82 96 -37 180 -68 185
-69 6 -2 23 -8 40 -15 16 -7 69 -26 117 -43 79 -27 96 -40 98 -70 1 -4 8 -27
16 -50 9 -24 17 -52 20 -63 2 -11 13 -49 24 -85 17 -57 44 -152 70 -245 5 -16
20 -70 35 -120 14 -49 28 -98 30 -108 2 -9 6 -21 9 -25 3 -5 7 -19 10 -33 6
-29 20 -77 40 -144 17 -59 74 -257 86 -300 4 -16 13 -42 19 -57 6 -16 8 -28 6
-28 -3 0 1 -16 9 -35 8 -19 13 -35 10 -35 -2 0 2 -16 10 -35 8 -19 12 -35 9
-35 -3 0 0 -7 7 -15 7 -8 10 -15 7 -15 -3 0 8 -43 24 -95 26 -89 29 -125 8
-125 -11 0 -103 -62 -107 -72 -2 -4 -8 -8 -14 -8 -23 0 -611 -458 -853 -665
-176 -150 -459 -421 -566 -540 -135 -151 -261 -341 -342 -516 -68 -144 -74
-158 -102 -244 -42 -126 -49 -166 -48 -310 0 -121 14 -252 28 -276 3 -4 7 -23
10 -42 16 -96 106 -292 178 -386 92 -120 380 -371 426 -371 6 0 11 -4 11 -9 0
-13 339 -181 461 -229 100 -38 245 -89 279 -98 8 -2 53 -15 100 -29 47 -15 92
-28 100 -30 8 -1 40 -10 71 -19 31 -9 65 -19 75 -21 11 -2 39 -9 64 -16 25 -6
54 -13 65 -15 11 -2 30 -6 42 -9 13 -3 32 -7 44 -10 11 -2 28 -6 37 -9 9 -3
32 -8 51 -11 19 -3 37 -7 40 -9 3 -2 22 -7 41 -10 19 -3 46 -8 60 -11 14 -3
36 -7 50 -10 14 -3 36 -7 50 -10 13 -2 42 -7 64 -11 22 -3 43 -7 46 -9 3 -1
25 -6 50 -9 25 -3 57 -8 73 -11 49 -9 141 -24 175 -30 17 -3 46 -7 62 -10 55
-9 85 -14 125 -20 23 -3 52 -7 65 -10 13 -2 44 -7 69 -10 25 -3 57 -7 71 -10
14 -3 45 -8 70 -11 59 -7 92 -12 96 -16 3 -3 121 -405 129 -438 2 -8 8 -27 14
-43 6 -15 8 -27 5 -27 -2 0 0 -8 5 -18 6 -11 12 -30 15 -43 3 -13 12 -49 21
-79 9 -30 18 -62 20 -70 2 -8 4 -15 5 -15 1 0 3 -7 5 -15 1 -8 28 -103 60
-210 31 -107 57 -199 58 -205 2 -5 6 -16 10 -22 5 -7 6 -13 4 -13 -3 0 6 -37
20 -82 13 -46 26 -90 28 -99 2 -8 11 -40 20 -70 9 -30 34 -115 55 -189 21 -74
70 -245 109 -380 40 -135 73 -253 76 -263 2 -9 6 -21 9 -25 3 -5 7 -19 10 -33
6 -34 64 -238 70 -248 3 -4 7 -18 10 -32 10 -49 130 -463 146 -504 6 -16 11
-32 11 -35 0 -3 2 -14 4 -25 15 -54 28 -102 33 -115 6 -18 9 -28 16 -55 3 -11
12 -45 21 -75 19 -67 19 -64 34 -120 6 -25 21 -74 31 -110 24 -77 125 -429
143 -495 24 -89 69 -245 77 -265 6 -14 12 -34 14 -45 2 -11 12 -47 22 -80 10
-33 19 -64 20 -70 1 -5 18 -66 39 -135 20 -69 39 -136 41 -149 3 -13 9 -32 15
-43 5 -10 7 -18 4 -18 -3 0 -1 -8 4 -18 6 -11 12 -30 15 -43 3 -13 35 -127 71
-254 85 -293 95 -327 100 -345 2 -8 8 -27 14 -43 6 -15 9 -27 6 -27 -2 0 3
-19 11 -42 9 -24 18 -54 20 -67 3 -13 9 -32 15 -43 5 -10 8 -18 5 -18 -2 0 5
-28 16 -62 11 -35 21 -71 23 -82 3 -10 11 -43 20 -72 9 -30 15 -55 14 -56 -2
-2 3 -13 9 -24 6 -12 14 -36 17 -54 3 -18 10 -40 14 -49 5 -9 9 -19 9 -24 1
-4 8 -33 17 -65 10 -31 19 -64 21 -72 2 -8 10 -37 18 -65 50 -171 75 -261 82
-294 3 -13 9 -32 14 -41 5 -9 11 -28 14 -41 2 -13 16 -62 29 -109 24 -83 37
-132 38 -147 0 -5 5 -14 11 -20 6 -7 8 -13 5 -13 -4 0 1 -19 9 -42 9 -24 17
-50 19 -58 2 -8 11 -40 20 -70 8 -30 17 -62 19 -70 2 -8 16 -55 31 -105 14
-49 28 -97 30 -105 2 -8 4 -15 5 -15 1 0 3 -11 6 -25 2 -14 11 -43 20 -65 9
-22 16 -42 15 -45 -1 -6 17 -76 30 -115 5 -16 25 -86 44 -154 20 -68 37 -126
40 -130 2 -4 6 -18 9 -32 4 -23 48 -177 87 -309 22 -74 27 -93 33 -119 2 -10
14 -51 27 -92 12 -41 23 -78 25 -84 4 -20 36 -130 41 -145 7 -17 10 -27 17
-55 38 -154 232 -708 312 -890 10 -22 18 -42 19 -45 1 -3 8 -18 15 -35 7 -16
14 -32 15 -35 4 -12 20 -49 45 -105 14 -33 37 -85 51 -115 81 -185 262 -532
434 -835 43 -75 244 -396 271 -432 13 -17 24 -34 24 -38 0 -3 5 -11 10 -18 6
-7 59 -80 118 -162 249 -350 421 -563 727 -900 184 -201 530 -540 700 -685 17
-14 75 -64 130 -111 84 -71 137 -115 310 -252 63 -50 235 -177 240 -177 4 0
13 -6 20 -13 30 -26 46 -38 181 -130 335 -228 666 -423 1051 -619 139 -70 255
-128 258 -128 3 0 37 -16 77 -34 40 -18 107 -48 148 -65 41 -18 84 -36 95 -41
50 -22 146 -61 205 -84 112 -43 185 -70 190 -71 3 -1 16 -6 30 -12 14 -6 43
-16 65 -23 22 -7 49 -16 60 -21 28 -12 267 -90 285 -94 8 -2 35 -10 60 -18 64
-21 141 -43 250 -72 94 -26 111 -30 150 -40 11 -3 29 -7 40 -10 11 -3 28 -7
38 -10 9 -2 49 -12 87 -21 39 -8 77 -17 85 -19 64 -15 109 -25 130 -29 31 -6
127 -25 160 -31 14 -3 36 -7 50 -10 34 -6 78 -14 120 -21 54 -8 83 -13 110
-19 14 -3 45 -8 70 -11 25 -3 59 -7 75 -10 61 -10 81 -13 135 -19 30 -3 66 -8
80 -10 14 -2 54 -7 90 -10 36 -4 81 -8 100 -10 299 -29 514 -39 885 -39 286 0
525 7 655 19 25 2 79 7 121 10 42 3 96 8 120 10 24 3 67 7 94 10 28 3 66 7 85
10 19 3 55 7 80 10 25 3 55 7 67 9 12 3 46 7 75 10 29 4 64 8 78 11 13 3 40 7
60 10 20 3 47 7 60 10 13 3 40 7 60 10 20 3 47 8 60 10 14 3 40 8 59 11 18 3
43 8 55 10 11 2 35 7 51 10 65 11 353 76 401 90 28 8 60 16 71 18 11 3 37 9
57 14 20 6 36 8 36 5 0 -3 7 0 15 7 8 7 15 10 15 7 0 -4 19 0 42 9 22 8 42 13
43 12 1 -2 8 -13 14 -25 6 -13 26 -26 44 -31 38 -10 74 4 203 79 47 27 87 49
89 49 3 0 45 25 96 55 50 30 93 55 94 55 2 0 68 40 147 88 80 49 152 92 161
95 10 4 17 11 17 17 0 5 5 10 11 10 10 0 457 295 534 353 16 12 100 73 185
136 609 449 1205 992 1675 1526 49 55 91 102 94 105 18 15 225 268 337 411
149 191 231 303 300 409 27 41 53 78 57 81 5 3 14 17 21 30 7 13 49 80 93 149
179 283 351 605 498 935 7 17 25 56 39 88 14 31 49 117 77 190 28 72 55 141
59 152 19 46 70 193 76 218 1 4 3 9 4 12 1 3 3 8 5 13 1 4 4 14 8 22 8 21 68
218 71 233 2 6 8 32 15 57 7 25 15 56 18 69 2 14 6 28 9 33 3 4 7 16 9 25 2
10 16 70 30 133 15 63 29 124 31 135 2 11 6 31 9 45 6 26 12 57 20 100 3 14 7
35 9 46 2 12 7 39 10 60 4 22 11 64 16 94 5 30 12 75 15 100 3 25 8 65 11 90
33 254 48 495 48 780 0 189 -9 467 -19 550 -2 19 -6 67 -10 105 -3 39 -8 84
-10 100 -3 17 -7 54 -11 84 -3 30 -8 64 -10 75 -2 12 -6 37 -9 56 -3 19 -7 46
-10 60 -3 14 -7 40 -10 59 -2 18 -7 41 -9 50 -3 9 -8 32 -11 51 -5 30 -28 141
-40 190 -1 8 -15 62 -30 120 -14 58 -28 116 -31 129 -3 13 -9 32 -15 43 -5 10
-7 18 -3 18 3 0 1 7 -6 15 -7 8 -10 15 -6 15 3 0 -3 23 -13 50 -11 28 -18 50
-16 50 11 0 -169 494 -187 514 -4 6 -8 16 -8 22 0 7 -14 43 -31 80 -25 53 -29
71 -21 88 6 11 36 75 68 141 31 66 84 176 117 245 75 157 147 309 158 335 5
11 13 27 18 35 6 8 25 49 45 90 19 41 67 143 106 225 40 83 94 195 120 250 73
153 166 346 237 495 36 74 85 176 108 225 24 50 70 147 104 218 92 193 173
360 231 482 29 61 79 166 113 235 75 156 168 352 214 450 19 41 39 82 44 90 5
8 13 24 18 35 5 11 34 73 65 138 118 246 166 346 226 472 375 782 485 1015
494 1055 1 3 7 14 13 25 6 11 23 52 38 90 32 84 39 102 53 135 26 60 64 166
112 310 52 157 56 167 60 185 1 6 7 21 12 35 5 14 12 32 14 40 2 8 22 78 44
155 22 77 42 152 45 167 3 15 9 38 15 52 5 15 7 26 5 26 -2 0 0 11 5 25 9 24
13 41 25 103 3 15 10 41 15 57 5 17 11 44 14 60 3 17 7 41 11 55 3 14 7 36 10
50 3 14 7 36 10 50 3 14 8 41 11 60 2 19 6 42 9 50 2 8 7 30 10 48 3 17 7 47
10 65 14 79 26 163 30 197 1 14 6 43 9 66 4 23 9 61 11 85 2 24 7 64 10 89 55
452 63 1069 20 1575 -3 44 -8 94 -10 110 -2 17 -6 59 -9 95 -4 36 -9 76 -11
90 -2 14 -7 48 -10 75 -3 28 -8 62 -10 76 -3 14 -7 41 -9 60 -10 73 -22 144
-30 179 -3 14 -8 43 -11 65 -3 22 -7 47 -10 55 -2 8 -6 31 -9 50 -6 37 -8 48
-25 120 -9 43 -14 67 -26 128 -3 15 -11 45 -17 67 -5 22 -12 48 -14 58 -2 10
-6 27 -9 37 -3 10 -8 28 -10 39 -10 45 -14 58 -29 116 -37 134 -39 145 -24
149 31 10 167 60 328 121 96 36 180 67 185 68 11 3 30 10 315 122 107 43 211
84 230 92 57 24 70 30 175 74 55 22 124 52 153 65 29 13 55 24 57 24 4 0 64
26 162 71 24 10 45 19 47 19 2 0 37 15 77 34 41 18 76 33 79 33 3 -1 19 6 35
16 17 9 59 29 95 45 75 34 198 91 355 165 99 47 613 304 725 364 210 111 337
180 428 232 35 20 80 45 100 56 96 52 400 229 572 333 250 151 934 590 950
611 3 3 13 11 22 16 41 23 466 323 898 633 116 83 313 237 375 293 168 152
208 190 268 253 225 236 354 408 455 611 57 114 106 235 96 235 -4 0 -2 6 4
13 6 7 13 26 16 42 2 17 5 30 6 30 2 0 4 10 14 60 18 86 21 123 21 270 0 169
-4 207 -34 320 -25 97 -116 307 -141 325 -3 3 -9 12 -12 20 -14 39 -137 187
-211 255 -88 80 -224 185 -266 206 -14 7 -39 23 -56 34 -84 60 -498 227 -618
249 -12 3 -22 5 -22 6 0 1 -8 3 -17 6 -36 8 -43 10 -63 17 -11 3 -31 8 -45 11
-14 3 -56 12 -95 21 -73 16 -86 18 -175 35 -30 6 -64 12 -76 14 -12 2 -45 7
-74 11 -29 4 -62 9 -74 11 -19 3 -40 7 -137 20 -81 11 -239 27 -394 40 -85 7
-87 7 -300 20 -251 16 -1261 9 -1750 -11 -179 -7 -367 -16 -415 -20 -30 -2
-109 -7 -175 -10 -192 -11 -381 -24 -455 -30 -25 -2 -83 -7 -130 -10 -47 -3
-103 -8 -125 -10 -22 -2 -74 -6 -115 -9 -41 -4 -95 -9 -120 -11 -25 -3 -72 -7
-105 -10 -33 -3 -87 -7 -120 -11 -33 -3 -78 -7 -100 -9 -22 -3 -65 -7 -95 -10
-30 -3 -75 -8 -100 -10 -25 -2 -72 -7 -105 -11 -81 -9 -99 -11 -175 -18 -66
-7 -115 -13 -181 -22 -34 -4 -65 -8 -170 -19 -80 -8 -133 -15 -159 -20 -14 -2
-50 -7 -80 -10 -30 -3 -71 -8 -90 -10 -19 -3 -56 -7 -81 -10 -25 -3 -56 -8
-70 -10 -13 -3 -47 -8 -75 -10 -28 -3 -61 -7 -73 -10 -12 -2 -50 -7 -84 -10
-34 -4 -64 -8 -67 -10 -3 -2 -34 -6 -69 -10 -34 -4 -72 -8 -84 -11 -12 -2 -42
-7 -67 -10 -25 -3 -56 -7 -70 -9 -14 -2 -38 -6 -55 -9 -16 -2 -48 -7 -70 -11
-56 -8 -106 -16 -135 -20 -55 -7 -126 -17 -145 -21 -10 -2 -37 -6 -60 -9 -45
-7 -76 -12 -121 -19 -17 -3 -48 -8 -70 -11 -37 -6 -63 -10 -124 -20 -14 -3
-43 -7 -65 -10 -22 -3 -51 -7 -65 -10 -14 -3 -41 -8 -60 -10 -19 -3 -46 -7
-60 -10 -14 -2 -41 -7 -60 -10 -19 -3 -60 -10 -90 -15 -54 -9 -78 -13 -150
-25 -19 -3 -48 -8 -65 -12 -16 -3 -37 -7 -45 -8 -14 -2 -80 -13 -125 -21 -10
-2 -35 -6 -55 -9 -20 -3 -47 -7 -60 -10 -39 -8 -131 -24 -170 -30 -19 -3 -46
-8 -60 -10 -59 -12 -77 -15 -105 -20 -16 -3 -41 -7 -55 -10 -14 -3 -38 -7 -55
-10 -16 -3 -41 -7 -55 -10 -14 -3 -38 -7 -55 -10 -16 -3 -41 -7 -55 -10 -14
-3 -38 -7 -55 -10 -16 -3 -41 -7 -55 -10 -14 -3 -38 -7 -55 -10 -16 -3 -41 -8
-55 -10 -38 -8 -70 -14 -130 -25 -30 -6 -66 -12 -80 -15 -14 -3 -37 -7 -52
-10 -16 -3 -40 -7 -55 -10 -16 -3 -39 -7 -53 -10 -14 -2 -47 -9 -75 -15 -27
-5 -63 -12 -80 -15 -32 -5 -64 -11 -105 -20 -14 -3 -41 -8 -60 -11 -19 -3 -66
-12 -105 -21 -38 -8 -79 -16 -90 -18 -76 -12 -102 -17 -117 -21 -16 -5 -36 -9
-88 -19 -14 -3 -35 -7 -46 -9 -12 -2 -37 -7 -55 -10 -35 -6 -65 -12 -109 -21
-14 -3 -36 -7 -50 -10 -14 -3 -36 -7 -50 -10 -14 -3 -36 -7 -50 -10 -14 -3
-36 -7 -50 -10 -26 -6 -57 -12 -100 -20 -14 -3 -36 -7 -50 -10 -14 -3 -56 -12
-95 -20 -38 -8 -81 -17 -95 -20 -14 -3 -34 -8 -45 -10 -11 -2 -31 -6 -45 -9
-14 -4 -36 -8 -50 -11 -14 -3 -35 -7 -47 -10 -22 -5 -39 -9 -93 -20 -81 -17
-92 -20 -140 -30 -14 -4 -36 -8 -50 -11 -14 -3 -41 -9 -60 -14 -19 -5 -50 -12
-69 -15 -19 -3 -37 -7 -40 -9 -3 -2 -24 -7 -46 -10 -22 -4 -64 -13 -95 -21
-30 -8 -71 -17 -90 -20 -19 -3 -60 -12 -90 -20 -30 -8 -67 -16 -82 -19 -59
-12 -82 -17 -147 -32 -94 -23 -103 -24 -131 -30 -14 -3 -33 -7 -42 -10 -9 -3
-25 -7 -35 -9 -10 -2 -40 -9 -68 -15 -27 -6 -57 -13 -65 -15 -8 -2 -55 -13
-105 -25 -114 -27 -107 -26 -190 -44 -38 -9 -79 -19 -90 -22 -11 -3 -31 -7
-45 -10 -14 -3 -38 -9 -55 -14 -16 -5 -41 -11 -55 -14 -14 -2 -54 -12 -90 -21
-36 -9 -75 -18 -87 -21 -12 -2 -35 -9 -50 -15 -16 -6 -29 -10 -31 -9 -1 1 -15
-1 -30 -4 -15 -4 -37 -9 -49 -11 -13 -3 -33 -7 -45 -11 -13 -3 -34 -7 -48 -10
-14 -3 -34 -8 -45 -11 -22 -7 -29 -9 -60 -16 -11 -3 -49 -13 -85 -22 -70 -18
-91 -23 -130 -31 -14 -3 -34 -8 -45 -11 -22 -7 -30 -10 -60 -16 -11 -3 -40
-10 -65 -17 -25 -7 -53 -14 -62 -16 -10 -2 -27 -6 -38 -9 -11 -3 -28 -7 -37
-9 -10 -2 -43 -11 -74 -20 -31 -9 -66 -19 -78 -21 -13 -2 -31 -7 -41 -10 -10
-3 -28 -8 -39 -10 -12 -3 -30 -7 -41 -10 -11 -3 -29 -7 -40 -10 -11 -3 -28 -7
-37 -10 -14 -4 -141 -37 -188 -49 -5 -1 -21 -6 -35 -11 -14 -4 -32 -9 -40 -10
-8 0 -35 -7 -60 -14 -114 -31 -306 -84 -315 -86 -29 -6 -77 -19 -139 -37 -38
-11 -78 -21 -89 -24 -11 -2 -44 -10 -73 -19 -30 -9 -55 -15 -56 -15 -2 1 -15
-3 -31 -9 -15 -6 -39 -13 -54 -15 -24 -5 -100 -26 -223 -63 -30 -9 -59 -18
-65 -19 -27 -6 -146 -40 -405 -114 -157 -45 -305 -88 -330 -95 -25 -7 -58 -18
-75 -25 -16 -6 -31 -11 -33 -10 -4 3 -67 -12 -77 -18 -5 -4 -17 -7 -25 -9 -8
-1 -46 -12 -85 -23 -76 -24 -91 -28 -103 -31 -4 -1 -34 -11 -67 -21 -33 -11
-73 -23 -90 -28 -16 -4 -113 -33 -215 -65 -102 -31 -201 -61 -220 -67 -19 -5
-61 -19 -94 -30 -32 -11 -63 -21 -70 -22 -15 -3 -187 -55 -206 -63 -8 -3 -20
-7 -27 -9 -10 -2 -155 -47 -191 -59 -7 -3 -14 -5 -17 -5 -3 0 -29 -9 -57 -19
-74 -26 -249 -82 -270 -86 -9 -2 -25 -8 -35 -13 -10 -6 -21 -11 -25 -11 -14
-3 -33 -9 -308 -100 -151 -51 -282 -93 -291 -96 -9 -2 -63 -20 -120 -40 -57
-20 -111 -38 -120 -40 -9 -2 -68 -22 -132 -44 -63 -23 -117 -41 -120 -41 -3 0
-18 -5 -34 -11 -15 -6 -29 -10 -30 -10 -1 0 -26 -9 -55 -20 -29 -11 -71 -26
-93 -33 -35 -12 -142 -52 -230 -86 -16 -6 -32 -12 -35 -12 -3 0 -13 -4 -22 -9
-14 -8 -36 20 -133 162 -63 94 -120 176 -125 182 -6 7 -54 71 -107 142 -86
116 -268 348 -314 400 -10 11 -53 61 -95 110 -275 322 -694 735 -1034 1021
-209 176 -559 444 -578 444 -6 0 -12 3 -14 8 -4 11 -83 66 -233 165 -71 48
-135 90 -141 94 -5 4 -21 14 -35 22 -13 8 -71 44 -129 79 -58 36 -118 73 -135
82 -142 82 -176 100 -184 100 -5 0 -11 3 -13 8 -9 20 -760 394 -798 397 -3 1
-20 9 -37 18 -18 10 -35 17 -38 18 -3 0 -25 8 -51 19 -25 11 -48 20 -50 20 -3
0 -26 10 -52 21 -26 12 -76 33 -112 46 -36 13 -108 40 -160 59 -128 48 -483
165 -575 190 -5 2 -35 10 -65 19 -30 9 -59 17 -65 19 -5 1 -30 8 -55 15 -25 7
-53 15 -63 17 -10 2 -27 6 -37 9 -10 3 -28 8 -39 10 -12 3 -30 7 -41 10 -11 3
-28 7 -38 9 -9 2 -44 11 -77 19 -33 9 -73 19 -90 22 -65 13 -82 17 -140 30
-33 7 -76 16 -95 19 -19 3 -46 8 -60 11 -36 8 -82 16 -105 20 -24 4 -90 15
-115 20 -10 2 -40 7 -67 11 -26 3 -57 8 -68 10 -21 4 -94 15 -135 20 -14 1
-41 5 -60 8 -32 4 -102 12 -190 22 -114 12 -142 14 -205 20 -38 3 -88 7 -110
9 -283 25 -954 26 -1310 0 -63 -4 -191 -15 -230 -19 -16 -2 -59 -7 -95 -10
-36 -4 -81 -9 -100 -11 -19 -3 -57 -7 -85 -11 -27 -3 -59 -7 -70 -9 -11 -1
-44 -6 -74 -10 -30 -3 -63 -9 -75 -11 -11 -2 -36 -6 -56 -9 -20 -3 -47 -7 -60
-10 -13 -3 -40 -7 -60 -10 -35 -5 -61 -10 -110 -20 -14 -2 -38 -7 -55 -10 -37
-6 -72 -13 -105 -21 -14 -3 -38 -7 -55 -10 -16 -3 -55 -12 -85 -19 -30 -8 -66
-16 -80 -18 -41 -8 -280 -67 -350 -87 -36 -10 -85 -24 -108 -30 -39 -10 -43
-14 -38 -33 4 -12 9 -32 12 -44 2 -12 9 -35 15 -50 10 -27 15 -43 25 -90 2
-12 9 -35 15 -50 6 -16 12 -35 14 -43 5 -25 31 -116 85 -300 28 -96 53 -183
55 -192 7 -32 38 -133 51 -170 8 -21 12 -38 9 -38 -2 0 0 -12 6 -27 6 -16 12
-35 14 -43 2 -8 40 -141 85 -295 45 -154 83 -287 85 -295 1 -8 11 -42 21 -75
10 -33 19 -62 19 -65 1 -3 5 -18 9 -35 4 -16 10 -37 13 -45 3 -8 7 -21 9 -28
1 -7 9 -36 18 -65 27 -89 68 -231 76 -263 4 -18 10 -36 13 -41 3 -5 8 -20 11
-34 3 -13 12 -49 21 -79 9 -30 18 -62 20 -71 2 -9 13 -47 25 -85 12 -38 23
-76 25 -84 8 -37 44 -161 49 -168 3 -5 8 -22 11 -38 3 -16 28 -105 55 -199 28
-93 53 -181 56 -195 3 -14 16 -61 30 -105 14 -44 27 -89 30 -99 3 -18 22 -81
45 -153 5 -18 12 -40 13 -50 2 -10 16 -58 31 -108 14 -49 28 -97 30 -105 2 -8
4 -15 5 -15 1 0 3 -7 5 -15 2 -8 6 -24 9 -35 2 -11 15 -57 29 -102 13 -46 20
-83 16 -83 -5 0 -67 23 -139 51 -71 27 -132 50 -135 49 -3 0 -18 6 -33 14 -15
9 -97 43 -182 77 -178 70 -198 79 -455 187 -230 96 -316 134 -415 180 -41 19
-79 35 -85 37 -5 1 -41 16 -80 34 -38 18 -92 43 -120 56 -27 12 -88 39 -135
60 -109 50 -881 438 -1025 516 -60 32 -139 74 -175 92 -36 17 -67 34 -70 37
-3 3 -23 15 -45 27 -22 11 -58 31 -80 43 -22 13 -80 45 -129 72 -49 28 -132
75 -185 106 -53 30 -121 70 -151 87 -85 49 -415 251 -492 300 -8 6 -35 23 -59
39 -24 16 -93 62 -154 102 -423 279 -856 608 -1200 913 -77 68 -154 138 -172
155 -17 17 -80 79 -140 138 -449 442 -839 970 -1067 1443 -40 82 -88 186 -91
195 -1 3 -5 14 -10 25 -78 190 -168 482 -189 615 -3 19 -8 46 -11 60 -3 14 -8
45 -11 70 -3 25 -7 56 -10 70 -21 115 -21 414 1 580 7 55 21 138 30 178 3 12
7 32 10 45 3 12 8 36 10 52 3 17 15 64 26 105 11 41 22 82 24 91 7 32 59 178
100 279 126 309 295 599 531 911 392 519 1002 1091 1737 1629 49 36 105 77
125 92 21 15 44 31 52 35 8 3 17 9 20 13 3 3 35 26 73 50 37 24 67 48 67 52 0
4 4 8 8 8 4 0 84 51 177 113 333 220 738 470 1045 645 19 11 64 36 100 57 184
105 516 286 680 371 41 21 77 41 80 44 11 12 1101 550 1115 550 1 0 59 27 129
60 69 33 127 59 128 58 2 -1 17 5 33 15 30 17 224 107 230 107 2 0 32 13 67
29 129 59 179 81 183 81 2 0 28 11 57 24 29 14 87 39 128 56 81 35 147 64 195
85 17 7 59 25 95 40 90 37 129 54 170 73 19 8 37 16 40 17 3 1 18 7 33 13 16
7 30 12 31 12 2 0 25 10 52 22 27 12 54 23 59 24 6 1 33 12 60 25 28 12 55 23
60 24 6 2 31 12 55 23 25 10 77 32 115 47 39 15 84 33 100 40 17 8 118 48 225
90 107 42 205 80 218 86 53 22 70 29 132 52 36 14 142 55 236 91 94 36 173 66
176 66 3 0 23 8 44 17 22 9 41 17 44 18 3 1 12 4 20 8 8 3 42 15 75 26 33 12
69 26 80 31 11 5 61 23 110 41 50 17 101 36 115 42 14 6 27 11 30 12 6 2 19 7
110 40 36 14 121 44 190 69 69 24 190 67 270 96 80 28 197 70 260 92 63 22
151 53 195 68 148 52 527 180 835 281 168 56 312 103 320 107 8 3 17 6 20 7 3
0 73 23 155 50 83 27 153 50 158 51 4 1 8 2 10 4 1 1 9 3 17 5 8 2 67 20 130
41 63 21 117 38 120 39 9 2 153 46 210 65 97 32 235 73 235 70 0 -2 10 2 23 9
13 7 31 14 41 16 21 4 204 59 271 82 25 8 50 16 55 17 6 1 37 11 70 21 33 10
65 19 70 20 6 2 51 15 100 31 50 15 95 29 100 30 6 1 64 18 130 38 66 20 145
43 175 52 30 9 73 22 95 29 38 12 118 36 140 41 6 1 73 21 150 44 77 23 154
45 171 50 18 4 36 10 41 13 5 3 20 8 34 11 26 4 107 27 254 71 50 15 97 28
105 31 24 6 87 23 123 33 17 6 48 14 67 20 19 5 76 21 125 35 50 15 97 28 105
30 8 2 67 18 130 36 63 17 122 33 130 34 12 3 84 23 110 31 3 1 19 5 35 9 17
5 71 19 120 33 50 14 97 27 105 28 8 2 15 4 15 5 0 1 9 3 20 6 11 2 88 22 170
44 169 46 178 48 203 54 9 2 76 20 148 40 71 20 139 38 149 40 11 2 47 11 80
21 50 13 107 28 225 59 35 9 216 57 233 61 9 3 26 7 36 9 46 10 188 48 211 57
14 4 36 11 50 13 14 3 34 7 45 10 56 14 223 57 240 62 11 3 36 9 55 14 19 4
134 33 255 64 121 32 228 59 238 62 9 2 26 6 37 9 11 3 29 7 40 10 11 3 29 7
41 10 11 2 29 7 39 10 10 3 27 7 37 9 10 2 47 12 83 21 36 9 75 19 87 21 12 2
34 9 48 14 14 5 25 8 25 5 0 -2 18 2 40 10 22 8 40 12 40 10 0 -3 11 0 25 5
14 5 36 12 48 14 21 5 42 10 87 21 11 3 29 7 40 10 11 3 28 7 38 9 10 2 94 23
187 46 94 22 188 45 210 51 22 5 48 12 58 14 31 9 62 16 87 21 14 3 57 13 95
24 39 11 81 21 95 24 14 3 36 8 50 11 14 3 36 8 50 11 14 3 34 8 45 11 11 4
25 8 30 9 6 1 48 11 95 23 47 11 99 23 115 26 36 7 44 9 70 18 11 3 31 8 45
11 14 3 36 8 50 11 14 3 36 8 49 11 14 3 28 7 31 9 4 2 22 7 41 10 19 3 52 10
74 16 22 5 51 12 65 15 14 3 43 10 65 16 38 10 50 13 96 23 11 2 28 6 37 9 9
3 32 8 51 11 19 3 37 8 41 10 4 2 22 7 41 10 19 3 52 11 74 17 22 5 51 12 65
14 14 3 39 9 55 14 17 5 41 11 55 14 25 5 48 10 102 22 15 3 30 5 33 5 2 0 23
6 45 14 22 8 40 12 40 10 0 -2 15 1 33 6 17 5 46 12 62 15 17 2 38 7 47 10 9
3 25 7 35 9 10 2 70 15 133 30 63 14 122 28 130 30 8 2 45 10 83 19 37 9 81
18 99 21 17 3 35 8 38 10 4 3 25 7 46 10 22 3 46 8 54 11 8 3 26 8 40 10 14 3
41 9 60 14 19 5 46 11 60 14 14 3 34 7 45 10 51 11 622 138 640 142 11 2 72
15 135 30 63 14 124 28 135 30 11 2 30 6 43 9 12 3 32 7 45 10 12 2 36 8 52
12 17 4 33 6 37 5 4 -1 19 3 34 9 15 5 39 11 53 13 14 2 46 9 71 14 25 6 61
14 80 17 19 3 62 12 95 20 86 20 196 44 225 49 14 3 36 8 50 11 14 3 34 7 45
9 11 2 29 6 40 9 11 3 34 9 50 12 37 6 56 10 120 25 28 6 61 14 75 16 14 2 36
7 50 10 14 3 36 8 50 10 23 4 69 14 95 20 9 2 68 15 135 29 24 4 49 10 98 20
12 3 32 7 45 10 72 15 89 19 147 30 14 3 34 7 45 9 92 20 184 39 205 42 14 3
33 7 42 10 10 3 30 7 45 10 16 2 60 11 98 20 66 14 81 17 145 29 14 3 36 7 50
10 14 3 36 7 50 10 14 3 36 7 50 10 14 3 36 7 50 10 53 10 72 14 88 19 18 6
57 13 112 22 19 3 51 9 70 14 19 5 49 12 65 14 34 7 60 12 130 26 88 18 99 20
135 26 19 3 51 9 70 14 38 10 75 17 130 26 19 3 51 9 70 14 19 5 49 12 65 14
17 3 40 8 51 10 12 2 37 7 55 10 41 7 73 13 114 23 17 3 37 7 45 8 25 4 84 15
100 20 8 2 29 7 45 10 17 2 41 7 55 10 14 3 41 8 60 11 19 3 43 7 52 10 10 3
29 7 43 10 14 2 37 6 53 9 15 3 36 7 47 9 36 6 89 16 115 21 14 3 36 7 50 10
14 3 36 7 50 10 36 8 71 14 105 20 17 3 37 8 45 10 8 3 31 7 50 9 19 3 46 8
60 11 14 3 36 7 50 10 14 3 35 7 46 9 12 2 37 7 55 10 19 3 45 8 59 11 14 3
39 7 55 10 17 3 44 8 60 12 17 3 37 7 45 8 8 2 31 6 50 9 19 4 46 9 60 11 14
3 36 7 50 10 14 3 41 8 60 11 19 3 42 7 50 9 8 2 29 7 45 10 17 2 41 7 55 10
14 3 39 8 55 10 17 3 41 7 55 10 28 6 69 13 115 21 17 3 37 7 45 9 8 2 30 7
48 10 17 3 47 7 65 10 17 3 39 8 47 10 8 3 31 7 50 9 19 3 45 7 56 10 12 2 37
7 55 10 19 3 45 8 59 11 14 3 39 7 55 10 17 2 44 7 60 10 28 5 40 7 105 20 14
3 40 7 59 10 18 2 41 7 50 9 9 3 32 7 51 10 19 3 46 8 60 11 13 2 42 7 64 11
22 3 43 7 46 9 3 2 30 6 60 10 30 4 58 9 61 11 4 2 24 6 45 9 22 3 50 7 64 10
14 3 41 8 60 11 19 3 42 7 50 9 8 2 35 7 60 10 25 3 52 8 60 10 8 2 29 7 45
10 17 2 41 7 55 10 13 2 40 7 60 10 20 3 47 7 60 10 14 3 41 8 60 11 19 4 44
8 55 10 11 3 36 6 55 9 19 3 46 7 60 10 14 3 41 8 60 11 19 3 42 7 50 9 8 2
33 7 55 10 23 3 52 8 65 10 14 3 40 8 59 11 18 3 43 8 55 10 11 2 37 6 56 9
19 3 46 7 60 10 14 3 39 8 55 10 64 11 141 25 173 30 17 3 47 7 65 10 48 8
138 24 167 30 14 3 41 7 60 10 19 3 46 7 60 10 14 2 39 7 55 9 44 7 86 14 125
21 41 8 61 11 115 19 22 3 51 8 65 11 14 3 41 8 60 11 19 3 46 7 60 10 14 2
41 6 60 9 19 3 46 7 60 10 26 5 79 15 115 20 11 2 38 6 60 9 22 3 51 8 65 11
13 2 40 7 60 10 20 3 47 8 60 10 14 3 41 7 60 10 19 3 46 7 60 10 13 2 40 7
60 10 20 3 47 8 60 10 14 3 43 8 65 11 22 2 52 7 68 9 15 3 39 7 55 10 15 2
43 7 62 10 43 7 74 12 120 20 109 17 149 90 86 154 -19 19 -86 37 -98 26z
m1782 -16639 c143 -8 177 -10 305 -20 111 -9 224 -20 320 -32 28 -3 61 -7 75
-9 29 -3 116 -16 145 -21 10 -2 35 -6 55 -9 20 -3 47 -8 60 -10 14 -3 40 -8
58 -11 18 -3 83 -19 145 -35 62 -16 120 -32 131 -34 10 -2 21 -6 23 -9 11 -11
-240 -219 -422 -348 -314 -224 -1057 -724 -1285 -865 -309 -191 -600 -363
-835 -493 -33 -18 -73 -41 -90 -50 -216 -120 -374 -202 -725 -378 -329 -164
-414 -205 -675 -324 -71 -33 -158 -73 -193 -89 -35 -16 -65 -29 -67 -29 -2 0
-34 -14 -72 -31 -100 -45 -97 -43 -243 -104 -74 -31 -148 -63 -164 -71 -16 -8
-32 -14 -36 -14 -4 0 -34 -12 -66 -27 -33 -15 -63 -28 -69 -29 -5 -1 -23 -7
-40 -14 -16 -6 -30 -10 -30 -9 0 2 -13 -4 -30 -14 -16 -9 -84 -37 -150 -62
-66 -25 -128 -50 -137 -55 -10 -6 -23 -10 -29 -10 -6 0 -25 -6 -42 -14 -18 -7
-59 -24 -92 -36 -33 -12 -69 -26 -80 -31 -11 -4 -51 -19 -90 -33 -38 -13 -128
-45 -200 -71 -71 -26 -159 -57 -195 -70 l-66 -22 -22 33 c-12 19 -22 37 -22
40 0 18 -201 353 -338 564 -89 136 -311 446 -367 513 -6 7 -48 59 -95 117
-233 291 -508 584 -799 853 -85 78 -162 149 -171 157 -8 8 -36 31 -60 50 -25
19 -49 40 -55 46 -34 38 -346 279 -514 397 -52 37 -88 67 -80 68 8 0 23 2 34
5 11 2 36 6 55 9 19 3 46 7 60 10 14 3 39 7 55 9 17 3 46 8 65 11 19 4 46 8
60 10 34 4 101 14 130 21 14 2 40 7 59 10 37 5 82 12 121 19 14 2 43 7 65 10
22 4 49 8 60 10 11 1 43 6 70 10 28 4 59 9 70 11 10 2 35 6 55 9 20 3 47 8 60
10 14 3 50 8 80 11 30 3 57 7 60 9 3 2 29 6 59 10 30 4 62 8 71 10 9 2 41 6
70 10 29 4 62 9 74 11 11 2 38 6 61 9 22 3 51 8 65 10 14 2 45 7 70 10 25 4
56 8 70 10 14 3 45 7 70 10 25 3 56 7 69 10 14 2 47 7 75 10 28 3 62 8 76 10
14 2 45 7 70 10 25 3 56 8 70 10 14 3 50 7 80 10 30 3 66 8 80 10 14 2 45 6
70 9 75 9 134 17 160 21 14 2 50 6 80 10 30 3 71 8 90 10 74 10 157 20 245 29
33 4 76 9 95 11 44 6 99 12 175 20 33 3 78 8 100 11 54 6 125 13 185 19 28 3
73 7 100 10 28 3 74 7 103 10 28 3 75 8 102 10 28 2 73 6 100 9 28 3 84 8 125
11 41 4 98 8 125 11 28 2 75 6 107 9 31 2 89 7 130 10 73 6 101 8 273 20 50 3
115 8 145 10 30 2 105 7 165 10 420 24 549 30 925 40 146 4 266 8 267 9 6 5
1059 -2 1173 -8z m-9591 -1192 c-34 -71 -86 -181 -116 -244 -30 -63 -74 -153
-96 -200 -23 -47 -42 -87 -43 -90 0 -3 -36 -77 -78 -165 -43 -88 -100 -205
-126 -260 -26 -55 -80 -167 -120 -250 -40 -82 -89 -186 -110 -230 -21 -45 -68
-144 -105 -220 -37 -77 -89 -185 -115 -240 -50 -105 -93 -194 -343 -715 -52
-109 -103 -216 -222 -465 -29 -60 -82 -172 -118 -247 -36 -75 -85 -177 -108
-225 -23 -48 -43 -89 -44 -91 -2 -2 -29 -5 -61 -7 -33 -2 -93 -7 -134 -11 -41
-3 -91 -7 -110 -9 -19 -1 -78 -6 -130 -10 -153 -11 -190 -14 -290 -20 -52 -3
-124 -8 -160 -10 -221 -15 -524 -31 -755 -40 -629 -26 -1737 -26 -2400 0 -208
8 -425 18 -650 30 -179 10 -204 11 -335 20 -200 13 -341 22 -435 30 -27 2 -86
6 -130 9 -44 4 -98 8 -120 10 -45 5 -192 17 -245 21 -19 1 -69 6 -110 9 -188
18 -175 14 -184 56 -3 14 -12 50 -21 80 -9 30 -19 64 -22 75 -3 11 -25 85 -50
165 -60 193 -117 359 -197 575 -37 97 -151 374 -191 459 -20 43 -35 79 -33 80
2 0 13 7 25 14 13 6 27 12 32 12 5 0 22 5 38 12 15 6 30 12 33 13 11 2 86 27
100 32 8 3 20 7 25 8 12 3 474 154 495 162 8 3 20 7 25 9 31 8 384 123 408
133 15 6 27 8 27 5 0 -4 7 -1 15 6 8 7 15 10 15 6 0 -3 24 3 53 13 48 16 192
63 210 67 4 1 9 3 12 4 3 1 8 3 13 4 4 1 16 5 27 8 11 4 67 21 125 38 58 17
161 49 230 70 213 65 269 82 272 80 2 -1 19 4 38 12 19 8 37 15 40 15 3 1 25
7 50 14 25 7 50 14 55 15 6 2 57 17 115 34 58 17 112 32 120 35 8 2 40 11 70
20 66 19 64 19 120 34 25 6 56 16 70 22 14 5 34 11 45 13 11 2 40 10 65 17 25
7 47 13 50 14 3 1 25 7 50 14 25 7 52 15 60 17 8 2 80 22 160 44 80 23 155 43
166 46 12 2 52 13 89 25 38 11 75 22 84 24 9 2 52 13 96 25 44 12 96 26 115
31 19 5 42 12 50 14 24 7 133 35 156 40 12 3 40 11 63 19 22 9 41 13 41 11 0
-3 11 0 25 5 14 5 36 12 48 14 20 5 176 45 257 67 19 5 46 12 60 15 14 2 50
12 80 20 30 9 65 18 77 20 12 2 34 9 48 14 14 5 25 7 25 5 0 -2 11 0 25 5 14
5 36 12 48 14 12 3 33 8 47 11 14 3 35 8 47 11 12 2 34 9 48 14 14 5 25 7 25
5 0 -2 11 0 25 5 14 5 36 12 48 14 12 2 69 16 127 31 58 15 113 29 123 31 10
2 27 6 37 9 10 3 28 8 39 10 12 2 49 11 84 20 59 16 77 20 122 29 11 3 79 19
150 36 72 17 137 33 145 35 8 2 47 11 85 20 39 9 79 19 90 21 11 3 31 7 45 10
14 3 33 7 42 10 9 3 25 7 35 9 10 2 50 11 88 20 39 9 81 18 95 21 14 3 43 10
65 16 22 5 51 12 65 14 14 3 33 7 42 10 9 3 26 7 37 9 12 3 31 7 44 10 12 3
31 7 42 9 11 3 72 16 135 31 132 30 148 34 175 39 11 2 43 10 70 16 28 6 59
13 70 15 29 5 69 14 160 35 45 10 92 21 105 23 14 3 61 13 105 22 44 9 87 18
95 20 8 2 62 13 120 25 58 12 121 25 140 30 19 5 51 12 70 15 19 3 77 15 129
26 96 21 118 26 161 34 14 3 36 7 50 10 14 3 36 7 50 10 14 3 36 7 50 10 14 3
36 7 50 10 14 3 36 7 50 10 14 3 38 8 55 11 16 3 32 7 34 10 3 3 7 1 9 -4 1
-5 -25 -67 -59 -138z m-7259 -5429 c47 -4 108 -8 135 -10 28 -2 91 -7 140 -10
50 -3 122 -8 161 -11 77 -5 173 -10 334 -19 58 -3 138 -8 177 -10 40 -2 143
-7 230 -11 87 -3 192 -7 233 -9 634 -27 1983 -27 2585 0 44 2 141 6 215 9 133
6 294 14 378 20 23 1 42 -1 42 -5 0 -4 -36 -83 -81 -176 -45 -92 -104 -215
-131 -273 -27 -58 -69 -143 -91 -190 -23 -47 -42 -87 -43 -90 0 -3 -36 -77
-79 -165 -43 -88 -79 -162 -80 -165 0 -3 -25 -54 -54 -115 -30 -60 -75 -155
-101 -210 -26 -55 -75 -158 -110 -230 -72 -150 -145 -302 -223 -465 -80 -167
-171 -359 -234 -490 -31 -63 -79 -164 -108 -225 -29 -60 -83 -173 -120 -250
-37 -77 -89 -185 -115 -240 -26 -55 -75 -156 -108 -225 -33 -69 -87 -183 -122
-255 -205 -429 -192 -407 -220 -400 -14 4 -32 9 -40 11 -8 2 -49 12 -90 23
-127 33 -674 171 -695 175 -11 3 -90 21 -175 41 -85 20 -162 38 -170 40 -9 2
-69 15 -135 30 -66 15 -130 29 -142 30 -11 2 -30 6 -41 9 -11 4 -31 9 -44 12
-36 7 -70 14 -103 20 -16 3 -37 7 -45 9 -8 2 -18 4 -21 4 -6 1 -11 16 -60 186
-17 61 -40 139 -51 175 -11 36 -21 72 -23 80 -2 8 -8 26 -13 40 -5 14 -10 28
-11 33 -3 24 -15 67 -27 100 -8 20 -12 37 -9 37 2 0 0 12 -6 28 -6 15 -12 34
-14 42 -8 32 -107 376 -112 390 -4 8 -5 19 -4 24 1 4 -4 14 -10 22 -6 8 -8 14
-5 14 4 0 2 8 -3 18 -6 11 -12 30 -15 43 -2 13 -16 65 -31 114 -14 50 -28 97
-30 105 -2 8 -31 110 -65 225 -34 116 -63 217 -65 225 -2 8 -16 56 -30 105
-15 50 -28 97 -30 105 -2 8 -13 47 -25 85 -12 39 -23 77 -25 85 -9 40 -44 158
-54 183 -6 15 -9 27 -6 27 2 0 -7 32 -20 70 -13 39 -22 70 -20 70 2 0 -3 19
-11 43 -9 23 -17 50 -20 60 -8 35 -13 54 -34 127 -11 41 -24 86 -29 100 -5 14
-14 43 -20 65 -24 88 -61 213 -76 264 -9 30 -18 62 -21 70 -2 9 -10 41 -19 71
-9 30 -18 62 -20 70 -2 8 -4 15 -5 15 -1 0 -4 9 -6 20 -8 34 -12 50 -14 50 -1
0 -3 7 -5 15 -5 28 -36 135 -46 160 -5 14 -11 35 -14 47 -4 22 -2 23 53 19 31
-3 95 -8 142 -11z m-9500 -890 c12 -44 25 -91 30 -105 4 -14 13 -45 20 -70 7
-25 15 -52 18 -60 7 -21 10 -31 16 -58 3 -12 7 -26 10 -30 3 -5 7 -19 10 -33
3 -13 12 -49 21 -79 9 -30 18 -63 20 -73 2 -9 6 -21 9 -25 3 -5 7 -19 10 -33
3 -13 21 -80 41 -149 21 -69 39 -134 42 -145 3 -11 14 -49 25 -85 11 -36 21
-72 23 -80 2 -8 20 -71 40 -140 20 -69 38 -132 40 -140 2 -8 4 -15 5 -15 1 0
3 -7 5 -15 8 -36 44 -161 50 -169 3 -6 -5 -8 -17 -6 -39 7 -142 25 -168 30
-13 3 -40 7 -60 10 -20 3 -47 7 -60 10 -14 3 -41 8 -60 11 -19 4 -42 8 -50 9
-8 2 -45 10 -83 19 -37 9 -81 18 -99 21 -17 3 -34 8 -38 10 -3 2 -18 6 -32 9
-14 2 -70 16 -124 31 -55 15 -106 29 -114 30 -99 22 -418 136 -549 197 -95 44
-262 146 -276 168 -11 17 48 120 122 213 175 219 440 454 935 827 l173 131 21
-68 c12 -37 32 -104 44 -148z m10784 -3951 c16 -3 33 -7 37 -9 3 -3 28 -7 53
-10 26 -3 58 -10 71 -15 14 -5 25 -7 25 -5 0 2 10 1 23 -4 13 -5 39 -12 58
-15 19 -3 45 -8 59 -11 14 -3 36 -8 50 -11 14 -3 33 -7 42 -10 10 -3 29 -7 43
-10 14 -2 65 -14 113 -25 48 -12 94 -22 102 -24 8 -2 33 -8 55 -14 22 -5 56
-13 75 -16 41 -7 141 -32 145 -37 1 -2 -21 -51 -49 -109 -28 -58 -80 -166
-115 -240 -36 -74 -97 -201 -136 -284 -40 -82 -93 -193 -118 -245 -25 -52 -77
-162 -117 -245 l-72 -150 -14 40 c-8 22 -17 53 -20 69 -2 16 -10 38 -16 50 -6
11 -11 23 -10 26 1 3 -5 30 -14 60 -9 30 -18 62 -20 70 -2 8 -28 101 -58 205
-30 105 -66 231 -80 280 -14 50 -31 108 -38 130 -6 22 -13 43 -14 48 -1 4 -2
8 -4 10 -1 1 -3 9 -5 17 -1 8 -9 35 -16 60 -7 25 -13 48 -15 53 -1 4 -2 8 -4
10 -1 1 -3 9 -5 17 -1 8 -19 71 -40 140 -44 153 -46 158 -52 194 -5 27 -4 28
23 22 16 -4 42 -9 58 -12z m8201 -5201 c14 -49 29 -95 32 -103 3 -8 7 -21 9
-29 1 -8 10 -37 19 -65 10 -28 18 -58 20 -66 2 -8 9 -35 16 -60 7 -25 13 -49
15 -55 1 -5 6 -28 12 -50 6 -22 13 -51 16 -65 3 -14 8 -36 11 -50 3 -14 8 -41
11 -60 3 -19 8 -38 10 -41 2 -3 6 -21 9 -40 3 -19 8 -45 10 -59 11 -53 15 -76
20 -115 3 -22 8 -51 10 -65 2 -14 7 -45 10 -70 4 -25 8 -56 10 -70 12 -72 29
-270 41 -490 13 -225 8 -553 -11 -760 -16 -177 -26 -259 -40 -350 -2 -14 -6
-43 -10 -65 -3 -22 -8 -53 -10 -70 -3 -16 -7 -41 -10 -55 -3 -14 -9 -50 -15
-80 -6 -30 -12 -66 -15 -80 -15 -85 -69 -305 -104 -430 -12 -41 -24 -84 -26
-95 -3 -12 -23 -77 -46 -145 -22 -69 -42 -129 -43 -135 -2 -5 -6 -17 -9 -25
-45 -122 -69 -187 -71 -195 -1 -5 -8 -21 -16 -35 -7 -14 -13 -27 -13 -30 1 -3
-5 -20 -13 -39 -8 -18 -14 -39 -14 -45 0 -7 -4 -16 -9 -21 -5 -6 -26 -50 -46
-100 -38 -91 -196 -427 -215 -455 -5 -8 -20 -35 -32 -60 -29 -59 -194 -345
-224 -390 -13 -19 -24 -40 -24 -46 0 -7 -3 -14 -8 -16 -4 -1 -52 -70 -106
-153 -476 -723 -1133 -1460 -1861 -2084 -93 -81 -215 -182 -270 -226 -55 -44
-105 -84 -111 -90 -16 -15 -379 -288 -439 -330 -116 -82 -523 -355 -529 -355
-3 0 -31 -18 -63 -40 -32 -23 -59 -37 -61 -32 -2 8 143 319 208 444 17 32 31
60 31 63 0 2 33 73 73 157 169 351 395 824 453 948 19 41 39 82 44 90 5 8 14
26 20 40 6 14 28 61 50 105 22 44 41 82 41 85 1 3 31 68 68 145 37 77 91 190
120 250 29 61 86 180 128 265 41 85 91 191 112 235 46 98 159 334 208 435 20
41 37 77 38 80 0 3 34 73 74 155 41 83 74 152 75 155 0 3 24 52 52 110 28 58
79 164 113 235 34 72 80 166 102 210 22 44 40 82 41 85 0 3 31 70 70 150 153
318 186 389 229 480 25 52 48 102 52 110 3 8 10 22 16 30 5 8 29 58 54 110 43
93 89 190 236 495 40 83 92 191 115 240 23 50 75 158 115 240 86 179 124 258
125 265 1 3 39 82 84 175 46 94 102 211 126 260 24 50 71 149 105 220 35 72
86 180 115 240 29 61 78 163 109 228 31 64 81 170 112 235 31 64 88 182 126
262 71 146 118 244 234 488 35 74 64 138 64 143 0 5 4 9 9 9 5 0 21 -39 36
-87z"/>
</g>
</svg>
