<?xml version="1.0" encoding="utf-8"?>
<!-- Generator: Adobe Illustrator 25.0.0, SVG Export Plug-In . SVG Version: 6.00 Build 0)  -->
<svg version="1.1" xmlns="http://www.w3.org/2000/svg" xmlns:xlink="http://www.w3.org/1999/xlink" x="0px" y="0px"
	 viewBox="0 0 512 512" style="enable-background:new 0 0 512 512;" xml:space="preserve">
<style type="text/css">
	.st0{fill:#606060;}
	.st1{fill-rule:evenodd;clip-rule:evenodd;fill:#606060;}
</style>
<g id="Livello_1">
	<g>
		<g>
			<path class="st0" d="M265.07,505.46l-1.13-1.13c-2.27,3.02-5.29,4.54-9.07,4.54s-6.8-1.51-9.07-4.54L5.4,265.07
				C3.13,262.8,2,259.78,2,256c0-3.78,1.13-7.18,3.4-10.21L244.66,6.54c3.02-2.27,6.43-3.4,10.21-3.4s7.18,1.13,10.21,3.4l7.94,9.07
				c2.27,2.27,3.4,5.29,3.4,9.07s-1.13,7.18-3.4,10.21L70.04,236.72h426.36c3.78,0,6.99,1.32,9.64,3.97
				c2.65,2.65,3.97,5.86,3.97,9.64v11.34c0,3.78-1.32,6.99-3.97,9.64c-2.65,2.65-5.86,3.97-9.64,3.97H70.04l202.97,201.84
				c2.27,3.02,3.4,6.43,3.4,10.21c0,3.78-1.13,6.8-3.4,9.07L265.07,505.46z"/>
		</g>
	</g>
</g>
<g id="Livello_2">
</g>
</svg>
