<svg version="1.1" xmlns="http://www.w3.org/2000/svg" xmlns:xlink="http://www.w3.org/1999/xlink" x="0px" y="0px"
	 viewBox="0 0 512 512" style="enable-background:new 0 0 512 512;" xml:space="preserve">
<g id="Livello_1">
	<g>
		<g>
			<path class="st0" d="M505.46,246.93l-1.13,1.13c3.02,2.27,4.54,5.29,4.54,9.07c0,3.78-1.51,6.8-4.54,9.07L265.07,506.6
				c-2.27,2.27-5.29,3.4-9.07,3.4s-7.18-1.13-10.21-3.4L6.54,267.34c-2.27-3.02-3.4-6.43-3.4-10.21c0-3.78,1.13-7.18,3.4-10.21
				l9.07-7.94c2.27-2.27,5.29-3.4,9.07-3.4s7.18,1.13,10.21,3.4l201.84,202.97V15.61c0-3.78,1.32-6.99,3.97-9.64
				c2.65-2.65,5.86-3.97,9.64-3.97h11.34c3.78,0,6.99,1.32,9.64,3.97c2.65,2.65,3.97,5.86,3.97,9.64v426.36l201.84-202.97
				c3.02-2.27,6.43-3.4,10.21-3.4c3.78,0,6.8,1.13,9.07,3.4L505.46,246.93z"/>
		</g>
	</g>
</g>
<g id="Livello_2">
</g>
</svg>
