<svg version="1.1" xmlns="http://www.w3.org/2000/svg" xmlns:xlink="http://www.w3.org/1999/xlink" x="0px" y="0px"
	viewBox="0 0 512 512" style="enable-background:new 0 0 512 512;" xml:space="preserve">
<g id="Livello_1">
	<g>
		<g>
			<path class="st0" d="M246.93,6.54l1.13,1.13c2.27-3.02,5.29-4.54,9.07-4.54c3.78,0,6.8,1.51,9.07,4.54L506.6,246.93
				c2.27,2.27,3.4,5.29,3.4,9.07s-1.13,7.18-3.4,10.21L267.34,505.46c-3.02,2.27-6.43,3.4-10.21,3.4c-3.78,0-7.18-1.13-10.21-3.4
				l-7.94-9.07c-2.27-2.27-3.4-5.29-3.4-9.07c0-3.78,1.13-7.18,3.4-10.21l202.97-201.84H15.61c-3.78,0-6.99-1.32-9.64-3.97
				C3.32,268.66,2,265.45,2,261.67v-11.34c0-3.78,1.32-6.99,3.97-9.64c2.65-2.65,5.86-3.97,9.64-3.97h426.36L238.99,34.88
				c-2.27-3.02-3.4-6.43-3.4-10.21s1.13-6.8,3.4-9.07L246.93,6.54z"/>
		</g>
	</g>
</g>
</svg>
