<?xml version="1.0" encoding="utf-8"?>
<!-- Generator: Adobe Illustrator 25.0.0, SVG Export Plug-In . SVG Version: 6.00 Build 0)  -->
<svg version="1.1" xmlns="http://www.w3.org/2000/svg" xmlns:xlink="http://www.w3.org/1999/xlink" x="0px" y="0px"
	 viewBox="0 0 512 512" style="enable-background:new 0 0 512 512;" xml:space="preserve">
<style type="text/css">
	.st0{fill:#606060;}
	.st1{fill-rule:evenodd;clip-rule:evenodd;fill:#606060;}
</style>
<g id="Livello_1">
	<g>
		<path class="st0" d="M256,32c46.67,0,89.5,9.33,128.5,28s70,43.83,93,75.5S512,202,512,240s-11.5,72.83-34.5,104.5
			s-54,56.83-93,75.5c-39,18.67-81.83,28-128.5,28c-31.33,0-62.33-4.67-93-14c-43.33,30.67-89.67,46-139,46c-4.67,0-9-1.33-13-4
			c-4-2.67-7-6.17-9-10.5c-2-4.33-2.5-8.83-1.5-13.5c1-4.67,3-8.5,6-11.5S15.33,430,24,418c13.33-18,23-35.33,29-52
			C17.67,328.67,0,286.67,0,240c0-38,11.5-72.83,34.5-104.5s54-56.83,93-75.5S209.33,32,256,32z M256,400c37.33,0,72-7.17,104-21.5
			c32-14.33,57.33-33.83,76-58.5c18.67-24.67,28-51.33,28-80s-9.33-55.33-28-80c-18.67-24.67-44-44.17-76-58.5S293.33,80,256,80
			c-37.33,0-72,7.17-104,21.5S94.67,135.33,76,160s-28,51.33-28,80c0,34,13.33,65,40,93l20,22l-10,28c-5.33,13.33-12,27-20,41
			c20-6.67,39-16.67,57-30l20-13l23,7C203.33,396,229.33,400,256,400z M144,208c8.67,0,16.17,3.17,22.5,9.5s9.5,13.83,9.5,22.5
			s-3.17,16.17-9.5,22.5S152.67,272,144,272s-16.17-3.17-22.5-9.5S112,248.67,112,240s3.17-16.17,9.5-22.5S135.33,208,144,208z
			 M256,208c8.67,0,16.17,3.17,22.5,9.5c6.33,6.33,9.5,13.83,9.5,22.5s-3.17,16.17-9.5,22.5c-6.33,6.33-13.83,9.5-22.5,9.5
			c-8.67,0-16.17-3.17-22.5-9.5S224,248.67,224,240s3.17-16.17,9.5-22.5S247.33,208,256,208z M368,208c8.67,0,16.17,3.17,22.5,9.5
			c6.33,6.33,9.5,13.83,9.5,22.5s-3.17,16.17-9.5,22.5c-6.33,6.33-13.83,9.5-22.5,9.5c-8.67,0-16.17-3.17-22.5-9.5
			c-6.33-6.33-9.5-13.83-9.5-22.5s3.17-16.17,9.5-22.5C351.83,211.17,359.33,208,368,208z"/>
	</g>
</g>
<g id="Livello_2">
</g>
</svg>
