<?xml version="1.0" encoding="utf-8"?>
<!-- Generator: Adobe Illustrator 25.0.0, SVG Export Plug-In . SVG Version: 6.00 Build 0)  -->
<svg version="1.1" xmlns="http://www.w3.org/2000/svg" xmlns:xlink="http://www.w3.org/1999/xlink" x="0px" y="0px"
	 viewBox="0 0 512 512" style="enable-background:new 0 0 512 512;" xml:space="preserve">
<style type="text/css">
	.st0{fill:#ffffff;}
	.st1{fill-rule:evenodd;clip-rule:evenodd;fill:#ffffff;}
</style>
<g id="Livello_1">
</g>
<g id="Livello_2">
	<path class="st1" d="M282.71,256l153.6-153.6c7.38-7.38,7.38-19.34,0-26.71c-7.38-7.38-19.34-7.38-26.71,0L256,229.29L102.4,75.69
		c-7.38-7.38-19.34-7.38-26.71,0c-7.38,7.38-7.38,19.34,0,26.71L229.29,256L75.69,409.6c-7.38,7.38-7.38,19.34,0,26.71
		c7.38,7.38,19.34,7.38,26.71,0L256,282.71l153.6,153.6c7.38,7.38,19.34,7.38,26.71,0c7.38-7.38,7.38-19.34,0-26.71L282.71,256z"/>
</g>
</svg>
