<?xml version="1.0" encoding="utf-8"?>
<svg version="1.1" id="Livello_1" xmlns="http://www.w3.org/2000/svg" xmlns:xlink="http://www.w3.org/1999/xlink" x="0px" y="0px"
	 viewBox="0 0 115.2 161.1" style="enable-background:new 0 0 115.2 161.1;" xml:space="preserve">
<path d="M57.6,0C25.8,0,0,27,0,60.2c0,26,35.3,76.5,50.6,97.3c2.8,3.9,8.2,4.8,12.1,1.9c0.7-0.5,1.4-1.2,1.9-1.9
	c15.3-20.8,50.6-71.3,50.6-97.3C115.2,27,89.4,0,57.6,0z M57.6,78.3c-10.4,0-18.8-8.5-18.8-19c0-10.5,8.4-19,18.8-19
	s18.8,8.5,18.8,19C76.4,69.8,68,78.3,57.6,78.3L57.6,78.3z"/>
</svg>
