<svg version="1.1" xmlns="http://www.w3.org/2000/svg" xmlns:xlink="http://www.w3.org/1999/xlink" x="0px" y="0px"
	viewBox="0 0 512 512" style="enable-background:new 0 0 512 512;" xml:space="preserve">
<g id="Livello_1">
	<g>
		<g>
			<g>
				<path class="st0" d="M2.95,272.85c0-81.2,18.72-141.5,56.22-180.89C96.68,52.61,141,29.83,192.26,23.56v91.84
					c-23.74,7.51-44.38,22.52-61.85,45.01c-17.52,22.49-26.26,58.11-26.26,106.83v20.63h86.25v200.58H2.95V272.85z M319.74,272.85
					c0-81.2,18.72-141.5,56.22-180.89c37.5-39.36,81.83-62.13,133.08-68.41v91.84c-22.49,7.51-42.81,22.52-60.91,45.01
					c-18.15,22.49-27.2,58.11-27.2,106.83v20.63h86.25v200.58H319.74V272.85z"/>
			</g>
		</g>
	</g>
</g>
<g id="Livello_2">
</g>
</svg>
