<svg version="1.1" xmlns="http://www.w3.org/2000/svg" xmlns:xlink="http://www.w3.org/1999/xlink" x="0px" y="0px"
	 viewBox="0 0 512 512" style="enable-background:new 0 0 512 512;" xml:space="preserve">
<g id="Livello_1">
	<g>
		<path class="st0" d="M489.37,353.49l-0.37,0.91c-1.79,4.38-3.51,8.66-5.21,12.87c-3.68,9.12-7.15,17.73-10.83,26.36
			c-11.75,27.56-32.75,41.53-62.41,41.53c-0.22,0-0.44,0-0.66,0c-37.2-0.26-75.8-0.58-118.01-1c-3.19-0.03-6.44-0.26-9.88-0.51
			c-1.38-0.1-2.8-0.2-4.29-0.29c1.69-9.18,3.33-18.22,4.95-27.15c4.14-22.86,8.05-44.45,12.48-66.25c2.73-13.41-2-21.34-14.89-24.96
			c-23.88-6.7-48.35-13.69-69.41-19.72c-9.18-2.62-18.32-5.3-28.01-8.12c-4.09-1.19-8.27-2.42-12.58-3.67l119.95-149.6L347,179.24
			c-4.78,5.26-9.42,10.33-13.94,15.27c-13.02,14.23-25.32,27.67-37.02,41.36c-3.33,3.89-5.59,12.08-3.49,16.09
			c2.54,4.84,9.7,9.39,15.03,9.54c18.97,0.53,38.27,0.31,56.93,0.11c6.95-0.08,13.9-0.16,20.85-0.2c8.42-0.05,13.69-0.3,15.99-3.33
			c2.22-2.94,1.37-7.81-1.53-18.34l-0.2-0.73h-76.33c4.29-4.72,8.36-9.23,12.29-13.57c9.78-10.8,19.02-21,28.12-30.93
			c8.34-9.11,8.45-18.47,0.32-27.07c-18.85-19.94-37.35-39.46-56.5-58.96c-4.78-4.87-9.69-7.21-14.62-6.96
			c-4.92,0.25-9.57,3.06-13.82,8.36c-4.71,5.88-9.22,12.07-13.57,18.06c-4.17,5.74-8.49,11.67-12.97,17.3l-0.19,0.23
			c-22.34,28.05-45.43,57.06-68.95,84.9c-3.92,4.64-11.63,8.38-17.56,8.52c-27.83,0.67-56.16,0.55-83.55,0.43
			c-7.32-0.03-14.63-0.06-21.94-0.08c-2.33-0.01-4.68-0.31-7.16-0.63c-0.93-0.12-1.86-0.24-2.82-0.35l-1.33-22.41l-0.8-0.12
			c-6.09-0.95-10.05-0.42-12.46,1.67c-2.88,2.5-2.8,6.71-2.73,10.78c0.07,4.19,0.14,8.16-2.61,10.46l-24.11,1.63l-0.19,0.68
			c-2.42,8.47-2.29,14.15,0.39,17.35c3.27,3.9,9.44,3.26,14.88,2.69c3.46-0.36,6.73-0.7,8.25,0.26c2.91,3,3.06,7.49,3.21,11.83
			c0.15,4.46,0.3,8.68,3.34,11.19c2.41,1.99,6.35,2.54,12.07,1.65l0.8-0.12l1.42-22.84h106.66c-0.9,1.16-1.74,2.24-2.53,3.26
			c-2.29,2.96-4.1,5.29-5.99,7.64c-5.33,6.63-7.27,12.9-5.62,18.13c1.61,5.09,6.57,8.97,14.34,11.23
			c10.27,2.97,20.72,5.93,30.84,8.79c8.85,2.5,17.71,5.01,26.55,7.55c13.45,3.87,26.6,7.72,40.52,11.79
			c5.74,1.68,11.52,3.37,17.35,5.07c-1.52,8.17-3.05,16.23-4.56,24.22c-4.06,21.41-7.89,41.63-11.3,62.26
			c-1.43,8.61-4.56,11.18-13.45,11.01c-48.33-0.9-97.48-1.26-145.01-1.61l-0.78-0.01c-18.69-0.14-36.99-0.1-56.37-0.07
			c-8.63,0.02-17.32,0.03-26.1,0.03h-1v20.98l0.92,0.08c1.53,0.12,2.99,0.27,4.4,0.41c2.92,0.29,5.67,0.57,8.43,0.59
			c27.27,0.28,54.53,0.56,81.8,0.85c98.79,1.03,200.94,2.1,301.41,2.82c0.27,0,0.54,0,0.81,0c30.89,0,55.53-12.71,71.29-36.8
			c7.9-12.08,13.48-25.37,19.39-39.43c2.61-6.21,5.3-12.62,8.22-18.94l0.45-0.97L489.37,353.49z"/>
		<path class="st0" d="M398.09,130.55c0.3,0,0.6,0,0.9-0.01c28.42-0.54,54.31-27.33,54.32-56.2c0-13.54-5.49-26.44-15.47-36.34
			c-9.86-9.77-23.21-15.35-36.69-15.35c-0.15,0-0.3,0-0.44,0c-13.82,0.13-27.89,6.49-38.58,17.46
			c-10.77,11.04-16.82,25.38-16.6,39.35c0.21,13.06,6.12,26.14,16.21,35.89C371.76,125.05,384.97,130.55,398.09,130.55z
			 M368.28,78.72c0.04-8.55,4.04-17.3,10.99-24c6.39-6.16,14.37-9.65,22.02-9.65c0.26,0,0.53,0,0.79,0.01
			c15.72,0.5,28.77,14.2,28.49,29.91c-0.3,16.97-16.24,32.92-32.84,32.92c-0.06,0-0.11,0-0.17,0
			C382.17,107.81,368.22,93.9,368.28,78.72z"/>
	</g>
</g>
<g id="Livello_2">
</g>
</svg>
