<?xml version="1.0" encoding="utf-8"?>
<!-- Generator: Adobe Illustrator 24.0.1, SVG Export Plug-In . SVG Version: 6.00 Build 0)  -->
<svg version="1.1" id="Livello_1" xmlns="http://www.w3.org/2000/svg" xmlns:xlink="http://www.w3.org/1999/xlink" x="0px" y="0px"
	 viewBox="0 0 658.8 86.2" style="enable-background:new 0 0 658.8 86.2;" xml:space="preserve">
<style type="text/css">
	.st0{fill:#FFFFFF;}
</style>
<g>
	<path class="st0" d="M11,0c5.6,0,11.2,3.6,11.2,10.9s-5.7,11-11.2,11s-11.1-3.6-11.1-11S5.5,0,11,0L11,0z M20.7,80.4H1.4l0.1-54
		h19.2C20.7,26.4,20.7,80.4,20.7,80.4z M52.9,80.4H33.4V42.3c0-4.8-0.1-6.7-5.6-6.4V25.4c7.8-1.8,24.3-3.9,24.3,8.4
		c3.3-5.9,9-9.4,15.8-9.4c15.9,0,21.7,10.6,21.4,24.5v14.8c0,4.2,0.7,6.4,5.2,6.4V80C83.3,83,70,82.3,70,67.3V48.9
		c0.1-6.2-3.9-9.3-8.1-9.3c-4.4-0.4-9,3.4-9,9.6V80.4L52.9,80.4z M217.2,43.2c-0.3,11.4-10.1,16.5-20.1,17
		c-5.5,0.3-10.9-0.7-15.3-2.8c1.2,7.3,7.7,9.5,15.5,9.2c6.5-0.3,14-2.3,17.8-4.3l0.8,14.4c-6.2,3.6-12.6,4.4-19.9,4.8
		c-18.9,0.9-32.3-7.8-32.8-27.4c-0.6-19.8,13.6-29.5,27.7-30.1C203.6,23.6,217.5,28.5,217.2,43.2L217.2,43.2z M193.2,48.7
		c2.7-0.1,5.6-2,5.5-5.1c0-3.9-4.5-4.7-7.5-4.7c-3.6,0.3-7.3,2.3-8.6,7.8C185.3,48,189.6,49,193.2,48.7L193.2,48.7z M241.1,63
		c0,3.5,3.2,4.9,6.4,4.9s6.4-1.5,6.4-4.3c0-3.4-3-3.9-6-4.2c-10.8-1.2-24.7-3.3-24.7-16.7S235.3,24,247.5,24
		c12.3,0,24.8,6.6,24.2,18.6h-16.9c-0.3-2.7-3.6-4.2-6.8-4.1c-3.1,0.1-5.8,1.4-5.8,3.6c-0.3,3.4,3.8,3.5,6.4,3.9
		c12.2,1.2,25.1,3,24.8,17.5C273,75.9,260.7,82,248.2,82c-12.5,0-25.7-3.2-26-19H241.1L241.1,63z M304.7,25.6h16.7v13.6h-16.7v19.1
		c0,10,10.6,9.3,17.6,6.8l1.6,14.4c-18.9,5.2-38.2,2.4-38.2-20.8V39.2L276,38V25.6h9.7l2.2-17h16.8V25.6L304.7,25.6z M351.9,80.4
		h-19.3V42.3c0-4.5-0.7-6.4-5.6-6.4V25.4c7.5-2.7,24.3-3.5,24.3,8.4c2.6-6.2,9.1-9.4,15.8-9.4c9.2,0,14.5,3.8,17.2,9.5
		c3.5-6,10.7-9.5,17.6-9.5c15.9,0,19.2,10.6,18.9,24.5v14.2c0,4.4,0.8,6.3,5.7,6.3v10.5c-12.2,3.3-25.1,2.4-25.1-12.7V48.9
		c0.1-6.4-3.5-9.3-7.2-9.3c-3.6,0.1-7.4,3.3-7.5,9.3v31.5h-18.9V48.9c0.1-6.5-3.9-9.3-7.8-9.3c-4,0.1-8.1,3.3-8.1,9.7V80.4
		L351.9,80.4z M484.2,43.2c-0.3,11.4-10.1,16.5-20.1,17c-5.5,0.3-10.9-0.7-15.3-2.8c1.2,7.3,7.7,9.5,15.5,9.2
		c6.5-0.3,14-2.3,17.8-4.3l0.8,14.4c-6.2,3.6-12.6,4.4-19.9,4.8c-18.9,0.9-32.3-7.8-32.8-27.4c-0.6-19.8,13.6-29.5,27.7-30.1
		C470.5,23.7,484.5,28.5,484.2,43.2L484.2,43.2z M460.2,48.7c2.7-0.1,5.6-2,5.5-5.1c0-3.9-4.5-4.7-7.5-4.7c-3.6,0.3-7.3,2.3-8.6,7.8
		C452.2,48,456.6,49,460.2,48.7L460.2,48.7z M513.6,80.4h-19.4V42.3c0-4.8-0.1-6.7-5.6-6.4V25.4c7.8-1.8,24.3-3.9,24.3,8.4
		c3.3-5.9,9-9.4,15.8-9.4c15.9,0,21.7,10.6,21.4,24.5v14.8c0,4.2,0.7,6.4,5.2,6.4V80c-11.2,3.1-24.5,2.4-24.5-12.6V48.9
		c0.1-6.2-3.9-9.3-8.1-9.3c-4.4-0.3-9.1,3.4-9.1,9.7L513.6,80.4L513.6,80.4z M584.9,25.6h16.7v13.6h-16.7v19.1
		c0,10,10.6,9.3,17.6,6.8l1.6,14.4c-18.9,5.3-38.2,2.5-38.2-20.7V39.2l-9.7-1.2V25.6h9.7l2.2-16.9h16.8V25.6L584.9,25.6z M626.5,63
		c0,3.5,3.2,4.9,6.4,4.9s6.4-1.5,6.4-4.3c0-3.4-3-3.9-6-4.2c-10.8-1.2-24.7-3.3-24.7-16.7S620.7,24,632.9,24s24.8,6.6,24.2,18.6
		h-16.9c-0.3-2.7-3.6-4.2-6.8-4.1c-3.1,0.1-5.8,1.4-5.8,3.6c-0.3,3.4,3.8,3.5,6.4,3.9c12.2,1.2,25.1,3,24.8,17.5
		C658.4,75.9,646.1,82,633.6,82s-25.7-3.2-26-19H626.5L626.5,63z"/>
	<path class="st0" d="M156.4,49c4.8-10,0.6-22-9.5-26.8l-1.1-0.5l-15.7,32.8l-6-20.8C120.6,21.5,108,14.5,95.9,18l14.9,51.7
		c3.5,12.1,16.1,19.1,28.2,15.6l0,0l0,0L156.4,49L156.4,49z"/>
</g>
</svg>
