<?xml version="1.0" encoding="utf-8"?>
<!-- Generator: Adobe Illustrator 25.0.0, SVG Export Plug-In . SVG Version: 6.00 Build 0)  -->
<svg version="1.1" id="Livello_1" xmlns="http://www.w3.org/2000/svg" xmlns:xlink="http://www.w3.org/1999/xlink" x="0px" y="0px"
	 viewBox="0 0 898 283.88" style="enable-background:new 0 0 898 283.88;" xml:space="preserve">
<style type="text/css">
	.st0{fill:#242424;}
</style>
<g>
	<path class="st0" d="M30.63,58.31v-0.15c0-15.05,11.34-27.37,27.6-27.37c9.98,0,15.96,3.33,20.87,8.17l-7.41,8.54
		c-4.08-3.71-8.24-5.97-13.54-5.97c-8.92,0-15.35,7.41-15.35,16.48v0.15c0,9.07,6.28,16.64,15.35,16.64c6.05,0,9.76-2.42,13.91-6.2
		l7.41,7.49c-5.44,5.82-11.49,9.45-21.7,9.45C42.2,85.54,30.63,73.51,30.63,58.31z"/>
	<path class="st0" d="M106.93,31.32h10.74l22.69,53.31h-12.17l-4.84-11.87h-22.38l-4.84,11.87H84.25L106.93,31.32z M119.18,62.47
		l-7.03-17.17l-7.03,17.17H119.18z"/>
	<path class="st0" d="M148.53,31.69h10.74l24.8,32.59V31.69h11.49v52.93h-9.91l-25.63-33.65v33.65h-11.49V31.69z"/>
	<path class="st0" d="M220.6,42.43H204.5V31.69h43.86v10.74h-16.11v42.2H220.6V42.43z"/>
	<path class="st0" d="M257.81,31.69h11.65v52.93h-11.65V31.69z"/>
	<path class="st0" d="M282.7,31.69h39.93v10.36h-28.36v10.74h24.95v10.36h-24.95v11.12H323v10.36h-40.3V31.69z"/>
	<path class="st0" d="M333.37,31.69h24.2c6.73,0,11.95,1.89,15.43,5.37c2.95,2.95,4.54,7.11,4.54,12.1v0.15
		c0,8.54-4.61,13.91-11.34,16.41l12.93,18.9H365.5l-11.34-16.94h-9.15v16.94h-11.65V31.69z M356.81,57.4c5.67,0,8.92-3.03,8.92-7.49
		v-0.15c0-4.99-3.48-7.56-9.15-7.56h-11.57v15.2H356.81z"/>
	<path class="st0" d="M388.05,31.69h39.93v10.36h-28.36v10.74h24.96v10.36h-24.96v11.12h28.74v10.36h-40.3V31.69z"/>
	<path class="st0" d="M459.06,58.31v-0.15c0-15.05,11.34-27.37,27.6-27.37c9.98,0,15.96,3.33,20.87,8.17l-7.41,8.54
		c-4.08-3.71-8.24-5.97-13.54-5.97c-8.92,0-15.35,7.41-15.35,16.48v0.15c0,9.07,6.28,16.64,15.35,16.64c6.05,0,9.76-2.42,13.92-6.2
		l7.41,7.49c-5.44,5.82-11.49,9.45-21.7,9.45C470.63,85.54,459.06,73.51,459.06,58.31z"/>
	<path class="st0" d="M517.22,31.69h24.2c6.73,0,11.95,1.89,15.43,5.37c2.95,2.95,4.54,7.11,4.54,12.1v0.15
		c0,8.54-4.61,13.91-11.34,16.41l12.93,18.9h-13.61l-11.34-16.94h-9.15v16.94h-11.65V31.69z M540.66,57.4
		c5.67,0,8.92-3.03,8.92-7.49v-0.15c0-4.99-3.48-7.56-9.15-7.56h-11.57v15.2H540.66z"/>
	<path class="st0" d="M571.9,31.69h39.93v10.36h-28.36v10.74h24.95v10.36h-24.95v11.12h28.73v10.36H571.9V31.69z"/>
	<path class="st0" d="M640.72,31.32h10.74l22.69,53.31h-12.17l-4.84-11.87h-22.38l-4.84,11.87h-11.87L640.72,31.32z M652.97,62.47
		l-7.03-17.17l-7.03,17.17H652.97z"/>
	<path class="st0" d="M694.64,42.43h-16.11V31.69h43.86v10.74h-16.11v42.2h-11.65V42.43z"/>
	<path class="st0" d="M731.85,31.69h11.65v52.93h-11.65V31.69z"/>
	<path class="st0" d="M752.2,31.69h12.85l13.84,37.28l13.84-37.28h12.55l-21.4,53.31H773.6L752.2,31.69z"/>
	<path class="st0" d="M811.11,58.31v-0.15c0-15.05,11.87-27.37,28.21-27.37c16.33,0,28.05,12.18,28.05,27.22v0.15
		c0,15.05-11.87,27.37-28.21,27.37C822.84,85.54,811.11,73.36,811.11,58.31z M855.2,58.31v-0.15c0-9.07-6.66-16.64-16.03-16.64
		c-9.38,0-15.88,7.41-15.88,16.48v0.15c0,9.07,6.66,16.64,16.03,16.64C848.7,74.8,855.2,67.39,855.2,58.31z"/>
</g>
<g>
	<path class="st0" d="M96.25,117.87h9.43l61.48,132.95h-10.75l-16.78-36.96H61.74l-16.78,36.96H34.77L96.25,117.87z M135.48,205
		l-34.7-76.38L65.89,205H135.48z"/>
	<path class="st0" d="M189.22,185.2v-0.38c0-35.64,25.84-68.27,65.25-68.27c21.5,0,35.08,6.41,48.28,17.35l-6.41,7.36
		c-10.37-9.05-22.44-15.84-42.43-15.84c-32.06,0-54.5,27.16-54.5,59.03v0.38c0,34.13,21.31,59.6,56.58,59.6
		c16.78,0,32.44-6.98,42.05-15.09v-37.91h-44.13v-9.05h53.56v50.92c-11.88,10.56-30.36,19.8-51.86,19.8
		C213.93,253.09,189.22,222.35,189.22,185.2z"/>
	<path class="st0" d="M342.92,118.82h93.92v9.05h-84.11v51.86h75.62v9.05h-75.62v52.99h85.05v9.05h-94.86V118.82z"/>
	<path class="st0" d="M469.27,118.82h9.24l91.09,114.85V118.82h9.43v132.01h-7.36l-92.97-117.3v117.3h-9.43V118.82z"/>
	<path class="st0" d="M612.4,185.2v-0.38c0-37.34,27.91-68.27,66-68.27c23.57,0,37.72,8.67,51.3,21.12l-6.98,7.17
		c-11.5-11.13-24.7-19.42-44.51-19.42c-31.68,0-55.63,25.84-55.63,59.03v0.38c0,33.38,24.33,59.41,55.82,59.41
		c19.05,0,32.06-7.36,45.45-20.56l6.6,6.41c-13.96,13.77-29.04,23.01-52.43,23.01C640.31,253.09,612.4,223.1,612.4,185.2z"/>
	<path class="st0" d="M800.42,198.59l-56.58-79.77h12.26l49.41,70.91l49.6-70.91h11.69l-56.58,79.58v52.43h-9.81V198.59z"/>
</g>
</svg>
