<?xml version="1.0" encoding="utf-8"?>
<!-- Generator: Adobe Illustrator 24.0.1, SVG Export Plug-In . SVG Version: 6.00 Build 0)  -->
<svg version="1.1" id="Livello_1" xmlns="http://www.w3.org/2000/svg" xmlns:xlink="http://www.w3.org/1999/xlink" x="0px" y="0px"
	 viewBox="0 0 1351 698" style="enable-background:new 0 0 1351 698;" xml:space="preserve">
<style type="text/css">
	.st0{fill:#FFFFFF;}
</style>
<g>
	<path class="st0" d="M478.7,335.5c-4.4,0-8,1.8-10.6,5.3c-1.7,2.2-2.8,5.4-3.2,9.8h27.4c-0.5-5.4-2-9.2-4.3-11.6
		C485.6,336.6,482.5,335.5,478.7,335.5z"/>
	<path class="st0" d="M807.2,339.4c-3.6,0-6.5,1.4-8.9,4.2c-2.4,2.8-3.6,7.3-3.6,13.5c0,5.7,1.2,10,3.6,12.8
		c2.4,2.8,5.5,4.2,9.2,4.2c3.2,0,5.9-1.3,8.1-4s3.3-7.2,3.3-13.6c0-5.9-1.1-10.2-3.4-13C813.2,340.8,810.4,339.4,807.2,339.4z"/>
	<path class="st0" d="M320.7,338.1c-4.1,0-7.4,1.6-10,4.7c-2.6,3.1-4,7.9-4,14.3c0,6.5,1.3,11.3,3.9,14.4c2.6,3.1,5.9,4.6,9.9,4.6
		c4,0,7.3-1.5,9.9-4.6c2.6-3.1,3.9-8,3.9-14.7c0-6.3-1.3-11-3.9-14S324.5,338.1,320.7,338.1z"/>
	<path class="st0" d="M0,0v698h1351V0H0z M270,393.2h-79.3V293h31v75.5H270V393.2z M351.1,384.2c-7.4,7.1-17.6,10.7-30.7,10.7
		c-11.7,0-21.1-3-28.3-8.9c-8.8-7.3-13.3-17-13.3-28.8c0-11.1,3.7-20.2,11.2-27.4c7.5-7.2,17.6-10.8,30.3-10.8
		c14.5,0,25.5,4.2,32.9,12.6c6,6.8,9,15.2,9,25.1C362.2,367.9,358.5,377,351.1,384.2z M424.4,342.7c-3.3-1.4-5.9-2.1-7.8-2.1
		c-3.6,0-6.5,1.5-8.5,4.5c-2.9,4.2-4.3,12.2-4.3,23.8v24.3h-28v-72.6h26v11.9c2.5-5.1,5.1-8.7,7.8-10.6c2.7-1.9,6-2.9,9.9-2.9
		c4.1,0,8.6,1.3,13.5,3.8L424.4,342.7z M520.6,363.8h-55.8c0.5,4.5,1.7,7.8,3.6,10c2.7,3.1,6.2,4.7,10.5,4.7c2.7,0,5.3-0.7,7.8-2.1
		c1.5-0.9,3.1-2.4,4.9-4.6l27.4,2.5c-4.2,7.3-9.3,12.5-15.2,15.7c-5.9,3.2-14.4,4.8-25.5,4.8c-9.6,0-17.2-1.4-22.7-4.1
		c-5.5-2.7-10.1-7-13.7-12.9c-3.6-5.9-5.4-12.8-5.4-20.8c0-11.3,3.6-20.5,10.9-27.5c7.3-7,17.3-10.5,30.1-10.5
		c10.4,0,18.6,1.6,24.6,4.7s10.6,7.7,13.7,13.7c3.1,6,4.7,13.7,4.7,23.3V363.8z M656.8,393.2h-27.9v-41.4c0-3.3-0.6-5.7-1.9-7.3
		c-1.9-2.5-4.2-3.8-6.9-3.8c-3.3,0-5.9,1.2-7.9,3.6c-2,2.4-3,6.2-3,11.4v37.5h-27.9v-40c0-3.2-0.2-5.4-0.5-6.5
		c-0.6-1.8-1.6-3.3-3.1-4.4c-1.5-1.1-3.2-1.7-5.1-1.7c-3.2,0-5.8,1.2-7.9,3.6c-2.1,2.4-3.1,6.4-3.1,11.9v37.1h-27.9v-72.6h26v10.6
		c3.7-4.4,7.5-7.6,11.3-9.4c3.8-1.9,8.4-2.8,13.8-2.8c5.8,0,10.4,1,13.8,3.1s6.1,5.1,8.3,9.2c4.4-4.7,8.4-8,11.9-9.7s8-2.6,13.3-2.6
		c7.8,0,13.9,2.3,18.2,6.9c4.4,4.6,6.6,11.9,6.6,21.7V393.2z M748.9,393.2h-27.8v-72.6h27.8V393.2z M748.9,312h-27.8V293h27.8V312z
		 M838.1,385.3c-5.8,6.4-13.1,9.5-21.9,9.5c-4.3,0-8.2-0.7-11.7-2.2c-3.5-1.5-6.7-3.6-9.5-6.5v34.7h-28.1V320.6h26v10.7
		c3.6-4.5,6.9-7.6,9.9-9.2c4.1-2.1,8.5-3.2,13.5-3.2c9.7,0,17.2,3.7,22.5,11.1c5.3,7.4,8,16.6,8,27.5
		C846.7,369.8,843.8,379,838.1,385.3z M928.5,381.9c-2.5,4-6.5,7.1-12,9.5c-5.4,2.3-12.9,3.5-22.3,3.5c-13.3,0-22.7-1.9-28.3-5.7
		c-5.6-3.8-9.2-9.2-10.8-16.1l27.6-2.6c1.1,3.3,2.7,5.6,4.8,7c2.1,1.4,4.8,2.1,8.2,2.1c3.7,0,6.6-0.8,8.7-2.4
		c1.6-1.2,2.4-2.7,2.4-4.4c0-2-1-3.5-3.1-4.6c-1.5-0.8-5.5-1.7-12-2.9c-9.7-1.7-16.4-3.2-20.1-4.7c-3.8-1.4-6.9-3.9-9.5-7.3
		c-2.6-3.4-3.9-7.3-3.9-11.7c0-4.8,1.4-8.9,4.2-12.4c2.8-3.5,6.6-6,11.5-7.8c4.9-1.7,11.4-2.6,19.6-2.6c8.7,0,15,0.7,19.2,2
		c4.1,1.3,7.6,3.4,10.3,6.2c2.8,2.8,5,6.5,6.9,11.3l-26.4,2.6c-0.7-2.3-1.8-4-3.4-5.1c-2.2-1.5-4.8-2.2-7.9-2.2
		c-3.1,0-5.4,0.6-6.9,1.7c-1.4,1.1-2.2,2.5-2.2,4.1c0,1.8,0.9,3.1,2.7,4c1.8,0.9,5.8,1.7,11.9,2.5c9.3,1,16.1,2.5,20.6,4.4
		s8,4.5,10.4,8c2.4,3.5,3.6,7.3,3.6,11.4C932.3,373.9,931.1,377.9,928.5,381.9z M1022.1,393.2h-26v-11.8c-3.9,4.8-7.8,8.3-11.7,10.3
		c-3.9,2.1-8.8,3.1-14.5,3.1c-7.7,0-13.7-2.3-18-6.9c-4.4-4.6-6.5-11.6-6.5-21.2v-46.2h28v39.9c0,4.6,0.8,7.8,2.5,9.7
		c1.7,1.9,4.1,2.9,7.1,2.9c3.3,0,6-1.3,8.2-3.8c2.1-2.6,3.2-7.1,3.2-13.7v-34.9h27.8V393.2z M1162.4,393.2h-27.9v-41.4
		c0-3.3-0.6-5.7-1.9-7.3c-1.9-2.5-4.2-3.8-6.9-3.8c-3.3,0-5.9,1.2-7.9,3.6c-2,2.4-3,6.2-3,11.4v37.5h-27.9v-40
		c0-3.2-0.2-5.4-0.5-6.5c-0.6-1.8-1.6-3.3-3.1-4.4c-1.5-1.1-3.2-1.7-5.1-1.7c-3.2,0-5.8,1.2-7.9,3.6c-2.1,2.4-3.1,6.4-3.1,11.9v37.1
		h-27.9v-72.6h26v10.6c3.7-4.4,7.5-7.6,11.3-9.4c3.8-1.9,8.4-2.8,13.8-2.8c5.8,0,10.4,1,13.8,3.1s6.1,5.1,8.3,9.2
		c4.4-4.7,8.4-8,11.9-9.7c3.6-1.7,8-2.6,13.3-2.6c7.8,0,13.9,2.3,18.2,6.9c4.4,4.6,6.6,11.9,6.6,21.7V393.2z"/>
</g>
</svg>
