<?xml version="1.0" encoding="UTF-8"?><svg id="Livello_1" xmlns="http://www.w3.org/2000/svg" xmlns:xlink="http://www.w3.org/1999/xlink" viewBox="0 0 1080 233.42"><defs><style>.cls-1{fill:#fff;}.cls-2{fill:url(#Sfumatura_senza_nome_243);}.cls-3{fill:url(#Sfumatura_senza_nome_243-2);}</style><linearGradient id="Sfumatura_senza_nome_243" x1="186.92" y1="124.75" x2="978.9" y2="124.75" gradientUnits="userSpaceOnUse"><stop offset="0" stop-color="#00c483"/><stop offset="1" stop-color="#00ff6c"/></linearGradient><linearGradient id="Sfumatura_senza_nome_243-2" x1="101.1" y1="104.38" x2="199.62" y2="104.38" xlink:href="#Sfumatura_senza_nome_243"/></defs><path class="cls-2" d="M240.99,114.47c-.34,11.36-10.11,16.47-20.1,17.04-5.45,.34-10.9-.68-15.33-2.84,1.25,7.27,7.72,9.54,15.45,9.2,6.47-.34,13.97-2.27,17.83-4.32l.79,14.42c-6.25,3.63-12.61,4.43-19.88,4.77-18.85,.91-32.25-7.84-32.82-27.37-.57-19.76,13.63-29.53,27.71-30.1,12.72-.34,26.69,4.54,26.35,19.19Zm-23.96,5.45c2.73-.11,5.56-2.04,5.45-5.11,0-3.86-4.54-4.66-7.5-4.66-3.63,.34-7.27,2.27-8.63,7.84,2.73,1.25,7.04,2.27,10.68,1.93Zm53.38,31.69h-19.42v-38.05c0-4.77-.11-6.7-5.56-6.36v-10.56c7.84-1.82,24.3-3.86,24.3,8.4,3.29-5.91,8.97-9.43,15.79-9.43,15.9,0,21.69,10.56,21.35,24.53v14.76c0,4.2,.68,6.36,5.22,6.36v9.88c-11.24,3.07-24.53,2.39-24.53-12.61v-18.4c.11-6.25-3.86-9.31-8.06-9.31-4.43-.34-9.09,3.41-9.09,9.65v31.12Zm71.21-54.74h16.69v13.63h-16.69v19.08c0,9.99,10.56,9.31,17.6,6.81l1.59,14.42c-18.85,5.22-38.16,2.39-38.16-20.78v-19.53l-9.65-1.25v-12.38h9.65l2.16-16.92h16.81v16.92Zm79.96,0v38.61c0,3.63,.11,5.34,4.54,5.34v10.56c-7.38,1.82-23.4,4.2-23.4-7.95-2.84,5.79-9.43,8.97-15.67,8.97-16.35,0-20.22-10.79-20.22-24.53v-31h19.53v31c-.34,6.59,3.29,9.43,7.15,9.43,4.54,0,8.75-3.75,8.75-9.77v-30.66h19.31Zm46.68-1.7c4.09-.11,8.06,1.02,11.13,3.29l-3.86,15.67c-3.07-2.16-6.36-2.84-9.43-2.73-6.47,.34-12.04,4.43-12.04,12.72v27.48h-18.97v-38.16c0-4.2-.23-6.25-4.88-6.25v-10.56c7.61-1.82,22.37-3.07,23.28,7.5,2.16-6.02,8.52-8.97,14.76-8.97Zm65.53,19.31c-.34,11.36-10.11,16.47-20.1,17.04-5.45,.34-10.9-.68-15.33-2.84,1.25,7.27,7.72,9.54,15.45,9.2,6.47-.34,13.97-2.27,17.83-4.32l.79,14.42c-6.25,3.63-12.61,4.43-19.88,4.77-18.85,.91-32.25-7.84-32.82-27.37-.57-19.76,13.63-29.53,27.71-30.1,12.72-.34,26.69,4.54,26.35,19.19Zm-23.96,5.45c2.73-.11,5.56-2.04,5.45-5.11,0-3.86-4.54-4.66-7.5-4.66-3.63,.34-7.27,2.27-8.63,7.84,2.73,1.25,7.04,2.27,10.68,1.93Zm73.83-16.13c3.98-5.79,8.06-7.61,14.99-7.61,10.9,0,23.4,8.52,23.06,28.39-.34,21.24-15.33,29.19-32.03,28.62-8.18-.11-16.47-1.93-23.74-5V69.27h17.72v34.53Zm1.14,32.59c2.38,.57,4.66,1.02,6.81,1.02,6.36,0,10.56-3.52,10.68-12.72,.34-5.91-2.16-12.49-9.09-12.49-6.36,0-8.4,7.5-8.4,12.49v11.7Zm98.92-39.52v38.61c0,3.63,.11,5.34,4.54,5.34v10.56c-7.38,1.82-23.4,4.2-23.4-7.95-2.84,5.79-9.43,8.97-15.67,8.97-16.35,0-20.22-10.79-20.22-24.53v-31h19.53v31c-.34,6.59,3.29,9.43,7.15,9.43,4.54,0,8.75-3.75,8.75-9.77v-30.66h19.31Zm21.92-25.55c5.56,0,11.24,3.63,11.24,10.9s-5.68,11.02-11.24,11.02-11.13-3.63-11.13-11.02,5.56-10.9,11.13-10.9Zm9.65,80.29h-19.31l.11-53.95h19.19v53.95Zm29.19-83.02v60.87c0,7.38,3.75,8.86,9.54,7.95l.57,14.42c-17.04,3.07-29.19-1.14-29.19-22.26v-60.99h19.08Zm53.04,74.73c-3.07,6.02-9.43,9.2-15.9,9.2-17.04-.34-24.65-13.29-24.65-29.07-.34-14.54,7.61-28.39,23.62-28.39,5.91,0,11.92,1.93,14.54,7.5v-34.53h17.94v66.1c0,4.43-.23,6.36,4.66,6.36v10.45c-6.93,1.48-20.22,3.52-20.22-6.93v-.68Zm-2.95-19.99c0-6.93-3.18-12.38-8.97-12.38-6.36,0-9.31,5.22-9.31,12.49s3.18,12.15,9.65,12.04c5.91,0,8.63-5.22,8.63-12.15Zm41-52.02c5.56,0,11.24,3.63,11.24,10.9s-5.68,11.02-11.24,11.02-11.13-3.63-11.13-11.02,5.56-10.9,11.13-10.9Zm9.65,80.29h-19.31l.11-53.95h19.19v53.95Zm32.14,0h-19.42v-38.05c0-4.77-.11-6.7-5.56-6.36v-10.56c7.84-1.82,24.3-3.86,24.3,8.4,3.29-5.91,8.97-9.43,15.79-9.43,15.9,0,21.69,10.56,21.35,24.53v14.76c0,4.2,.68,6.36,5.22,6.36v9.88c-11.24,3.07-24.53,2.39-24.53-12.61v-18.4c.11-6.25-3.86-9.31-8.06-9.31-4.43-.34-9.09,3.41-9.09,9.65v31.12Zm83.59-6.7c-2.61,5.79-8.52,7.61-14.42,7.61-11.02,0-23.74-8.4-23.74-28.28,.34-21.58,15.56-28.96,32.37-28.62,8.06,.11,16.13,1.93,23.74,5v51.22c0,30.21-28.17,35.89-51.56,23.51l1.7-14.2c11.58,5.56,31.91,9.65,31.91-9.31v-6.93Zm-.91-32.48c-2.5-.68-4.77-1.02-6.93-1.02-6.25,0-10.79,3.52-10.9,12.72,0,6.02,2.95,12.49,9.88,12.49,6.36,0,7.95-7.5,7.95-12.49v-11.7Z"/><g><path class="cls-1" d="M180.35,120.25c4.81-10.04,.57-22.07-9.47-26.88l-1.15-.55-15.7,32.79-5.98-20.77c-3.49-12.13-16.15-19.13-28.27-15.64l14.9,51.77c3.49,12.13,16.15,19.13,28.27,15.64h0s0,0,0,0l17.41-36.35Z"/><path class="cls-3" d="M198.77,91.38c-.77-.79-1.46-1.01-2.06-1.24-.61-.2-1.17-.32-1.71-.41-1.09-.18-2.12-.25-3.14-.28-8.08-.08-15.72,1.28-23.37,2.81-7.62,1.6-15.14,3.63-22.51,6.2-.24,.09-.48,.19-.73,.27,.59,.91,1.1,1.88,1.56,2.89,.08-.03,.15-.06,.22-.08,6.91-2.33,14.01-4.15,21.18-5.58l1.5-3.13,1.15,.55c.96,.46,1.85,1.01,2.71,1.59,6.06-1.03,12.2-1.78,18.13-1.63,.91,.04,1.8,.12,2.61,.27,.33,.06,.61,.14,.88,.22-.48,.49-1.24,1-2.01,1.52-3.02,2.15-6.31,3.92-9.73,5.34-1.17,.49-2.35,.93-3.55,1.35,.67,1.25,1.2,2.57,1.6,3.93,1.21-.44,2.42-.9,3.6-1.41,3.68-1.56,7.19-3.54,10.43-5.9,.8-.57,1.66-1.13,2.53-2.01,.43-.46,.88-.92,1.27-1.8,.18-.43,.34-1.03,.25-1.72-.08-.7-.45-1.35-.82-1.74Zm-71.34,24.44l.85,2.95c-.87-.12-1.74-.26-2.61-.42-.99-.21-2-.44-3.06-.9-.54-.26-1.11-.53-1.68-1.15-.62-.58-.92-1.88-.62-2.69,.54-1.57,1.42-2.24,2.19-2.98,.76-.67,1.55-1.3,2.36-1.89,.15-.11,.31-.21,.46-.31l.88,3.06c-.6,.44-1.2,.89-1.76,1.37-.65,.53-1.26,1.24-1.33,1.52,0,.01,0,0,0,.01,.09,.1,.37,.29,.69,.44,.7,.32,1.58,.56,2.47,.76,.39,.08,.79,.14,1.18,.21Zm25.5,6c.88,.18,1.76,.37,2.63,.58l.98-2.05c-1.44-.39-2.88-.73-4.33-1.03l.72,2.5Zm-35.18-24.51c-3.33-1.64-6.64-3.49-9.24-5.9-2.52-2.34-4.46-5.56-3.78-8.53,.57-3.05,3.35-5.73,6.28-7.84,3-2.13,6.36-3.89,9.81-5.45,6.94-3.09,14.25-5.47,21.64-7.54,14.81-4.07,29.92-7.21,45.14-9.66,.11-.02,.19-.12,.18-.23-.01-.12-.12-.2-.23-.19-7.68,.8-15.33,1.91-22.95,3.19-7.62,1.28-15.21,2.79-22.73,4.67-7.52,1.88-14.99,4.05-22.24,7.03-3.61,1.52-7.2,3.2-10.52,5.51-1.66,1.15-3.26,2.44-4.67,4.03-1.4,1.57-2.65,3.5-3.12,5.8-.54,2.29-.09,4.74,.86,6.73,.94,2.01,2.27,3.7,3.79,5.18,3.03,2.9,6.51,4.91,10.04,6.74,2.63,1.32,5.34,2.45,8.09,3.45l-1.4-4.85c-1.68-.65-3.34-1.34-4.96-2.11Zm30.42,7.98l1.29,4.49c4,.32,8.03,.4,12.06,.16l2.18-4.55c-.67,.06-1.33,.11-2,.15-4.5,.31-9.02,.17-13.53-.25Zm26.08,33c.3,3.67-.91,7.39-3.08,10.47-2.1,3-4.92,5.54-8.07,7.48l-.18,.37s0,0,0,0h0c-.06,.02-.13,.03-.19,.05,0,.02,0,.04,0,.06,.06,.1,.18,.14,.29,.09,3.43-1.85,6.52-4.34,8.94-7.46,2.42-3.1,3.96-7.06,3.83-11.13-.04-1.96-.5-3.92-1.31-5.74l-1,2.08c.42,1.19,.68,2.45,.76,3.73Zm-40.9-31.14c1.68,.42,3.36,.81,5.06,1.14,3.65,.7,7.33,1.2,11.04,1.5l-1.29-4.49c-2.77-.26-5.54-.61-8.29-1.1l-5.29-1.12c-4.04-.96-8.03-2.16-11.89-3.66l1.4,4.85c1.67,.61,3.34,1.18,5.04,1.69l4.22,1.18Zm30.34-1.76l-2.18,4.55c.15,0,.31,0,.46-.01,6.62-.43,13.23-1.69,19.53-3.96-.39-1.36-.93-2.68-1.6-3.93-5.21,1.81-10.68,2.89-16.21,3.35Zm-10.77,16.43l-.72-2.5c-4.86-1.01-9.78-1.6-14.65-2.16-3.41-.41-6.86-.74-10.13-1.34l.85,2.95c3.04,.43,6.02,.66,9.01,.96,5.26,.51,10.52,1.06,15.64,2.09Z"/></g></svg>