<?xml version="1.0" encoding="UTF-8"?><svg id="Livello_1" xmlns="http://www.w3.org/2000/svg" xmlns:xlink="http://www.w3.org/1999/xlink" viewBox="0 0 1080 311.89"><defs><style>.cls-1{fill:#fff;}.cls-2{fill:url(#Sfumatura_senza_nome_26);}</style><linearGradient id="Sfumatura_senza_nome_26" x1="90.48" y1="154.36" x2="336.15" y2="154.36" gradientUnits="userSpaceOnUse"><stop offset="0" stop-color="#008cff"/><stop offset="1" stop-color="#00ff6c"/></linearGradient></defs><path class="cls-1" d="M465.66,176.75c-.99,32.84-29.23,47.61-58.12,49.26-15.76,.99-31.52-1.97-44.33-8.21,3.61,21.02,22.33,27.58,44.66,26.6,18.72-.99,40.39-6.57,51.56-12.48l2.3,41.71c-18.06,10.51-36.45,12.81-57.46,13.79-54.51,2.63-93.26-22.66-94.91-79.14-1.64-57.14,39.41-85.38,80.13-87.02,36.78-.99,77.17,13.14,76.18,55.5Zm-69.29,15.76c7.88-.33,16.09-5.91,15.76-14.78,0-11.17-13.13-13.46-21.68-13.46-10.51,.99-21.02,6.57-24.95,22.66,7.88,3.61,20.36,6.57,30.87,5.58Zm154.37,91.62h-56.16v-110.01c0-13.79-.33-19.37-16.09-18.39v-30.54c22.66-5.25,70.27-11.17,70.27,24.3,9.52-17.07,25.94-27.26,45.65-27.26,45.97,0,62.72,30.54,61.74,70.93v42.69c0,12.15,1.97,18.39,15.1,18.39v28.57c-32.51,8.86-70.93,6.89-70.93-36.45v-53.2c.33-18.06-11.17-26.92-23.32-26.92-12.81-.99-26.27,9.85-26.27,27.91v89.98Zm205.92-158.61l48.27,.33v39.41h-48.27v55.17c0,28.9,30.54,26.93,50.9,19.7l4.6,41.71c-54.51,15.1-110.34,6.89-110.34-60.09v-56.48l-27.91-3.62v-35.79l27.92-.21,6.35-48.22h48.62l-.13,48.09Zm150.09,162.22c-42.37,0-84.72-27.58-84.72-83.41s42.69-83.74,85.05-83.41c41.71,.33,83.41,28.24,83.41,83.41s-41.37,83.41-83.73,83.41Zm0-48.93c14.78-.33,28.24-11.82,28.24-34.48s-13.46-34.15-27.58-34.48c-14.45-.33-29.55,11.17-29.55,34.48s14.45,34.81,28.9,34.48Z"/><path class="cls-1" d="M288.1,193.93c11.99-25.03,1.41-55.04-23.62-67.02l-2.88-1.38-39.15,81.76-14.9-51.8c-8.7-30.24-40.26-47.7-70.5-39l37.14,129.09c8.7,30.24,40.26,47.7,70.5,39h0s0,0,0,0l43.41-90.64Z"/><path class="cls-2" d="M334.04,121.93c-1.93-1.96-3.63-2.53-5.13-3.09-1.51-.5-2.91-.8-4.27-1.03-2.71-.44-5.29-.62-7.83-.7-20.14-.19-39.2,3.2-58.27,7.01-19,4-37.75,9.06-56.12,15.45-.61,.22-1.21,.47-1.82,.68,1.47,2.27,2.75,4.7,3.9,7.21,.19-.06,.37-.14,.56-.21,17.24-5.8,34.95-10.35,52.81-13.92l3.73-7.8,2.88,1.38c2.4,1.15,4.62,2.51,6.75,3.97,15.12-2.56,30.42-4.44,45.21-4.07,2.26,.1,4.49,.3,6.52,.66,.81,.15,1.53,.35,2.2,.55-1.2,1.22-3.08,2.49-5.02,3.79-7.53,5.35-15.72,9.77-24.27,13.33-2.91,1.23-5.87,2.33-8.85,3.37,1.67,3.12,3,6.4,3.98,9.8,3.02-1.09,6.03-2.24,8.99-3.53,9.17-3.88,17.93-8.83,26-14.71,2-1.41,4.13-2.81,6.31-5.02,1.06-1.15,2.2-2.3,3.16-4.49,.45-1.08,.85-2.56,.63-4.29-.19-1.73-1.11-3.36-2.05-4.34Zm-177.89,60.94l2.12,7.35c-2.16-.31-4.33-.64-6.52-1.06-2.48-.52-4.98-1.1-7.64-2.24-1.34-.65-2.76-1.33-4.19-2.86-1.55-1.46-2.29-4.69-1.56-6.71,1.35-3.92,3.54-5.58,5.45-7.42,1.9-1.67,3.87-3.23,5.88-4.71,.38-.27,.77-.51,1.15-.78l2.2,7.64c-1.5,1.11-2.99,2.23-4.39,3.43-1.63,1.32-3.13,3.09-3.31,3.8,0,.03,0,.02,0,.03,.22,.26,.92,.73,1.72,1.11,1.74,.79,3.94,1.4,6.15,1.89,.97,.2,1.97,.35,2.95,.54Zm63.59,14.96c2.2,.44,4.38,.93,6.55,1.45l2.44-5.1c-3.58-.96-7.17-1.83-10.79-2.58l1.79,6.22Zm-87.72-61.12c-8.31-4.08-16.57-8.71-23.03-14.7-6.28-5.82-11.11-13.86-9.43-21.28,1.42-7.62,8.36-14.3,15.65-19.56,7.47-5.32,15.87-9.7,24.47-13.6,17.29-7.72,35.54-13.63,53.95-18.81,36.92-10.16,74.61-17.97,112.55-24.09,.27-.04,.48-.3,.45-.58-.03-.29-.29-.5-.58-.47-19.16,1.98-38.21,4.76-57.21,7.95-19,3.19-37.93,6.94-56.67,11.64-18.74,4.68-37.37,10.09-55.44,17.52-9,3.8-17.94,7.99-26.22,13.73-4.13,2.87-8.13,6.09-11.65,10.04-3.5,3.91-6.6,8.73-7.79,14.46-1.34,5.71-.22,11.83,2.15,16.79,2.35,5.01,5.65,9.23,9.45,12.91,7.56,7.24,16.24,12.23,25.04,16.8,6.57,3.29,13.32,6.1,20.17,8.6l-3.48-12.1c-4.19-1.62-8.33-3.34-12.37-5.27Zm75.86,19.91l3.22,11.2c9.98,.81,20.03,.99,30.07,.4l5.43-11.35c-1.66,.14-3.32,.28-4.98,.38-11.22,.77-22.5,.43-33.74-.62Zm65.04,82.28c.75,9.15-2.26,18.43-7.67,26.11-5.23,7.48-12.27,13.81-20.12,18.66l-.44,.91s0,0,0,0h0c-.16,.06-.32,.08-.48,.12,.01,.05,0,.1,.02,.14,.14,.26,.46,.35,.71,.21,8.55-4.61,16.26-10.82,22.3-18.6,6.03-7.72,9.88-17.59,9.54-27.75-.09-4.89-1.25-9.79-3.26-14.31l-2.49,5.2c1.04,2.98,1.7,6.1,1.9,9.3Zm-101.97-77.65c4.18,1.04,8.38,2.02,12.62,2.83,9.09,1.74,18.29,2.99,27.54,3.74l-3.22-11.2c-6.92-.65-13.82-1.51-20.66-2.74l-13.19-2.78c-10.09-2.39-20.02-5.39-29.64-9.12l3.48,12.1c4.15,1.51,8.34,2.94,12.57,4.21l10.51,2.95Zm75.65-4.38l-5.43,11.35c.38-.02,.76,0,1.15-.03,16.5-1.08,33-4.22,48.69-9.87-.98-3.39-2.31-6.67-3.98-9.8-12.98,4.51-26.62,7.2-40.42,8.35Zm-26.87,40.96l-1.79-6.22c-12.12-2.51-24.39-3.98-36.54-5.39-8.5-1.01-17.09-1.84-25.26-3.35l2.12,7.35c7.58,1.08,15.02,1.64,22.47,2.4,13.11,1.26,26.23,2.63,39,5.21Z"/></svg>