<?xml version="1.0" encoding="utf-8"?>
<!-- Generator: Adobe Illustrator 24.0.1, SVG Export Plug-In . SVG Version: 6.00 Build 0)  -->
<svg version="1.1" id="Livello_1" xmlns="http://www.w3.org/2000/svg" xmlns:xlink="http://www.w3.org/1999/xlink" x="0px" y="0px"
	 viewBox="0 0 859.1 113.4" style="enable-background:new 0 0 859.1 113.4;" xml:space="preserve">
<style type="text/css">
	.st0{fill:#FFFFFF;}
</style>
<g>
	<path class="st0" d="M121.2,46.4c-0.3,11.4-10.1,16.5-20.1,17c-5.4,0.3-10.9-0.7-15.3-2.8c1.2,7.3,7.7,9.5,15.4,9.2
		c6.5-0.3,14-2.3,17.8-4.3l0.8,14.4c-6.2,3.6-12.6,4.4-19.9,4.8c-18.9,0.9-32.2-7.8-32.8-27.4c-0.6-19.8,13.6-29.5,27.7-30.1
		C107.6,26.9,121.5,31.8,121.2,46.4L121.2,46.4z M97.2,51.9c2.7-0.1,5.6-2,5.4-5.1c0-3.9-4.5-4.7-7.5-4.7c-3.6,0.3-7.3,2.3-8.6,7.8
		C89.3,51.2,93.6,52.2,97.2,51.9L97.2,51.9z M150.6,83.6h-19.4v-38c0-4.8-0.1-6.7-5.6-6.4V28.6c7.8-1.8,24.3-3.9,24.3,8.4
		c3.3-5.9,9-9.4,15.8-9.4c15.9,0,21.7,10.6,21.4,24.5v14.8c0,4.2,0.7,6.4,5.2,6.4v9.9c-11.2,3.1-24.5,2.4-24.5-12.6V52.1
		c0.1-6.2-3.9-9.3-8.1-9.3c-4.4-0.3-9.1,3.4-9.1,9.7L150.6,83.6L150.6,83.6z M221.8,28.8h16.7v13.6h-16.7v19.1
		c0,10,10.6,9.3,17.6,6.8l1.6,14.4c-18.9,5.2-38.2,2.4-38.2-20.8V42.5l-9.6-1.2V28.8h9.6l2.2-16.9h16.8V28.8L221.8,28.8z
		 M301.8,28.8v38.6c0,3.6,0.1,5.3,4.5,5.3v10.6c-7.4,1.8-23.4,4.2-23.4-8c-2.8,5.8-9.4,9-15.7,9c-16.4,0-20.2-10.8-20.2-24.5v-31
		h19.5v31c-0.3,6.6,3.3,9.4,7.1,9.4c4.5,0,8.8-3.8,8.8-9.8V28.8L301.8,28.8L301.8,28.8z M348.5,27.1c4.1-0.1,8.1,1,11.1,3.3
		l-3.9,15.7c-3.1-2.2-6.4-2.8-9.4-2.7c-6.5,0.3-12,4.4-12,12.7v27.5h-19V45.4c0-4.2-0.2-6.2-4.9-6.2V28.6c7.6-1.8,22.4-3.1,23.3,7.5
		C335.9,30.1,342.2,27.1,348.5,27.1L348.5,27.1z M414,46.5c-0.3,11.4-10.1,16.5-20.1,17c-5.5,0.3-10.9-0.7-15.3-2.8
		c1.2,7.3,7.7,9.5,15.4,9.2c6.5-0.3,14-2.3,17.8-4.3l0.8,14.4c-6.2,3.6-12.6,4.4-19.9,4.8c-18.9,0.9-32.2-7.8-32.8-27.4
		c-0.6-19.8,13.6-29.5,27.7-30.1C400.4,26.9,414.3,31.8,414,46.5L414,46.5z M390,51.9c2.7-0.1,5.6-2,5.4-5.1c0-3.9-4.5-4.7-7.5-4.7
		c-3.6,0.3-7.3,2.3-8.6,7.8C382.1,51.2,386.4,52.2,390,51.9L390,51.9z M463.9,35.8c4-5.8,8.1-7.6,15-7.6c10.9,0,23.4,8.5,23.1,28.4
		c-0.3,21.2-15.3,29.2-32,28.6c-8.2-0.1-16.5-1.9-23.7-5V1.2h17.7L463.9,35.8L463.9,35.8z M465,68.4c2.4,0.6,4.7,1,6.8,1
		c6.4,0,10.6-3.5,10.7-12.7c0.3-5.9-2.2-12.5-9.1-12.5c-6.4,0-8.4,7.5-8.4,12.5L465,68.4L465,68.4z M563.9,28.8v38.6
		c0,3.6,0.1,5.3,4.5,5.3v10.6c-7.4,1.8-23.4,4.2-23.4-8c-2.8,5.8-9.4,9-15.7,9c-16.3,0-20.2-10.8-20.2-24.5v-31h19.5v31
		c-0.3,6.6,3.3,9.4,7.2,9.4c4.5,0,8.8-3.8,8.8-9.8V28.8L563.9,28.8L563.9,28.8z M585.9,3.3c5.6,0,11.2,3.6,11.2,10.9
		s-5.7,11-11.2,11s-11.1-3.6-11.1-11S580.3,3.3,585.9,3.3z M595.5,83.6h-19.3l0.1-54h19.2L595.5,83.6L595.5,83.6z M624.7,0.6v60.9
		c0,7.4,3.8,8.9,9.5,8l0.6,14.4c-17,3.1-29.2-1.1-29.2-22.3v-61L624.7,0.6L624.7,0.6z M677.7,75.3c-3.1,6-9.4,9.2-15.9,9.2
		c-17-0.3-24.7-13.3-24.7-29.1c-0.3-14.5,7.6-28.4,23.6-28.4c5.9,0,11.9,1.9,14.5,7.5V0h17.9v66.1c0,4.4-0.2,6.4,4.7,6.4v10.5
		c-6.9,1.5-20.2,3.5-20.2-6.9L677.7,75.3L677.7,75.3z M674.8,55.3c0-6.9-3.2-12.4-9-12.4c-6.4,0-9.3,5.2-9.3,12.5s3.2,12.2,9.7,12
		C672.1,67.5,674.8,62.2,674.8,55.3L674.8,55.3z M715.8,3.3c5.6,0,11.2,3.6,11.2,10.9c0,7.3-5.7,11-11.2,11s-11.1-3.6-11.1-11
		S710.2,3.3,715.8,3.3L715.8,3.3z M725.4,83.6h-19.3l0.1-54h19.2L725.4,83.6L725.4,83.6z M757.6,83.6h-19.4v-38
		c0-4.8-0.1-6.7-5.6-6.4V28.6c7.8-1.8,24.3-3.9,24.3,8.4c3.3-5.9,9-9.4,15.8-9.4c15.9,0,21.7,10.6,21.3,24.5v14.8
		c0,4.2,0.7,6.4,5.2,6.4v9.9c-11.2,3.1-24.5,2.4-24.5-12.6V52.1c0.1-6.2-3.9-9.3-8.1-9.3c-4.4-0.3-9.1,3.4-9.1,9.7L757.6,83.6
		L757.6,83.6z M841.2,76.9c-2.6,5.8-8.5,7.6-14.4,7.6c-11,0-23.7-8.4-23.7-28.3c0.3-21.6,15.6-29,32.4-28.6c8.1,0.1,16.1,1.9,23.7,5
		v51.2c0,30.2-28.2,35.9-51.6,23.5l1.7-14.2c11.6,5.6,31.9,9.7,31.9-9.3V76.9L841.2,76.9z M840.3,44.4c-2.5-0.7-4.8-1-6.9-1
		c-6.2,0-10.8,3.5-10.9,12.7c0,6,3,12.5,9.9,12.5c6.4,0,8-7.5,8-12.5V44.4L840.3,44.4z"/>
	<path class="st0" d="M60.6,52.2c4.8-10,0.6-22.1-9.5-26.9l-1.1-0.5L34.2,57.6l-6-20.8C24.8,24.7,12.1,17.7,0,21.2l14.9,51.8
		C18.4,85.1,31,92.1,43.2,88.6l0,0l0,0L60.6,52.2L60.6,52.2z"/>
</g>
</svg>
