<?xml version="1.0" encoding="UTF-8"?><svg id="Livello_1" xmlns="http://www.w3.org/2000/svg" xmlns:xlink="http://www.w3.org/1999/xlink" viewBox="0 0 1080 233.42"><defs><style>.cls-1{fill:#fff;}.cls-2{fill:url(#Sfumatura_senza_nome_249);}.cls-3{fill:url(#Sfumatura_senza_nome_249-2);}</style><linearGradient id="Sfumatura_senza_nome_249" x1="210.58" y1="124.17" x2="869.42" y2="124.17" gradientUnits="userSpaceOnUse"><stop offset="0" stop-color="#008cff"/><stop offset="1" stop-color="#4daeff"/></linearGradient><linearGradient id="Sfumatura_senza_nome_249-2" x1="287.88" y1="116.37" x2="386.29" y2="116.37" xlink:href="#Sfumatura_senza_nome_249"/></defs><path class="cls-2" d="M221.72,83.2c5.57,0,11.25,3.64,11.25,10.91s-5.68,11.02-11.25,11.02-11.14-3.64-11.14-11.02,5.57-10.91,11.14-10.91Zm9.66,80.35h-19.32l.11-53.98h19.21v53.98Zm32.16,0h-19.43v-38.07c0-4.77-.11-6.71-5.57-6.36v-10.57c7.84-1.82,24.32-3.86,24.32,8.41,3.3-5.91,8.98-9.43,15.8-9.43,15.91,0,21.71,10.57,21.37,24.55v14.77c0,4.21,.68,6.36,5.23,6.36v9.89c-11.25,3.07-24.55,2.39-24.55-12.61v-18.41c.11-6.25-3.86-9.32-8.07-9.32-4.43-.34-9.09,3.41-9.09,9.66v31.14Zm164.34-37.16c-.34,11.36-10.11,16.48-20.12,17.05-5.46,.34-10.91-.68-15.34-2.84,1.25,7.27,7.73,9.55,15.46,9.21,6.48-.34,13.98-2.27,17.84-4.32l.8,14.43c-6.25,3.64-12.61,4.43-19.89,4.77-18.87,.91-32.28-7.84-32.84-27.39-.57-19.77,13.64-29.55,27.73-30.12,12.73-.34,26.71,4.55,26.37,19.21Zm-23.98,5.46c2.73-.11,5.57-2.05,5.46-5.11,0-3.86-4.55-4.66-7.5-4.66-3.64,.34-7.27,2.27-8.64,7.84,2.73,1.25,7.05,2.27,10.68,1.93Zm47.85,14.32c0,3.52,3.18,4.89,6.36,4.89s6.36-1.48,6.36-4.32c0-3.41-2.95-3.86-6.02-4.2-10.8-1.25-24.66-3.3-24.66-16.71s12.16-18.64,24.43-18.64,24.78,6.59,24.21,18.64h-16.93c-.34-2.73-3.64-4.21-6.82-4.09-3.07,.11-5.8,1.36-5.8,3.64-.34,3.41,3.75,3.52,6.36,3.86,12.16,1.25,25.12,2.95,24.78,17.5-.34,12.39-12.61,18.41-25.12,18.41s-25.68-3.18-26.03-18.98h18.87Zm63.64-37.39h16.71v13.64h-16.71v19.09c0,10,10.57,9.32,17.62,6.82l1.59,14.43c-18.87,5.23-38.19,2.39-38.19-20.8v-19.55l-9.66-1.25v-12.39h9.66l2.16-16.93h16.82v16.93Zm47.17,54.78h-19.32v-38.07c0-4.55-.68-6.36-5.57-6.36v-10.57c7.5-2.73,24.32-3.52,24.32,8.41,2.61-6.25,9.09-9.43,15.8-9.43,9.21,0,14.55,3.75,17.16,9.55,3.52-6.02,10.68-9.55,17.62-9.55,15.91,0,19.21,10.57,18.87,24.55v14.21c0,4.43,.8,6.25,5.68,6.25v10.46c-12.16,3.3-25.12,2.39-25.12-12.73v-18.18c.11-6.36-3.52-9.32-7.16-9.32-3.64,.11-7.39,3.3-7.5,9.32v31.48h-18.87v-31.48c.11-6.48-3.86-9.32-7.84-9.32-3.98,.11-8.07,3.3-8.07,9.66v31.14Zm132.29-37.16c-.34,11.36-10.11,16.48-20.12,17.05-5.46,.34-10.91-.68-15.34-2.84,1.25,7.27,7.73,9.55,15.46,9.21,6.48-.34,13.98-2.27,17.84-4.32l.8,14.43c-6.25,3.64-12.61,4.43-19.89,4.77-18.87,.91-32.28-7.84-32.84-27.39-.57-19.77,13.64-29.55,27.73-30.12,12.73-.34,26.71,4.55,26.37,19.21Zm-23.98,5.46c2.73-.11,5.57-2.05,5.46-5.11,0-3.86-4.55-4.66-7.5-4.66-3.64,.34-7.27,2.27-8.64,7.84,2.73,1.25,7.05,2.27,10.68,1.93Zm53.42,31.71h-19.43v-38.07c0-4.77-.11-6.71-5.57-6.36v-10.57c7.84-1.82,24.32-3.86,24.32,8.41,3.3-5.91,8.98-9.43,15.8-9.43,15.91,0,21.71,10.57,21.37,24.55v14.77c0,4.21,.68,6.36,5.23,6.36v9.89c-11.25,3.07-24.55,2.39-24.55-12.61v-18.41c.11-6.25-3.86-9.32-8.07-9.32-4.43-.34-9.09,3.41-9.09,9.66v31.14Zm71.26-54.78h16.71v13.64h-16.71v19.09c0,10,10.57,9.32,17.62,6.82l1.59,14.43c-18.87,5.23-38.19,2.39-38.19-20.8v-19.55l-9.66-1.25v-12.39h9.66l2.16-16.93h16.82v16.93Zm41.6,37.39c0,3.52,3.18,4.89,6.36,4.89s6.36-1.48,6.36-4.32c0-3.41-2.95-3.86-6.02-4.2-10.8-1.25-24.66-3.3-24.66-16.71s12.16-18.64,24.43-18.64,24.78,6.59,24.21,18.64h-16.93c-.34-2.73-3.64-4.21-6.82-4.09-3.07,.11-5.8,1.36-5.8,3.64-.34,3.41,3.75,3.52,6.36,3.86,12.16,1.25,25.12,2.95,24.78,17.5-.34,12.39-12.61,18.41-25.12,18.41s-25.68-3.18-26.03-18.98h18.87Z"/><g><path class="cls-1" d="M367.04,132.22c4.8-10.03,.57-22.05-9.46-26.85l-1.15-.55-15.68,32.75-5.97-20.75c-3.48-12.11-16.13-19.1-28.24-15.62l14.88,51.71c3.48,12.11,16.13,19.1,28.24,15.62h0s0,0,0,0l17.39-36.31Z"/><path class="cls-3" d="M385.44,103.38c-.77-.78-1.45-1.01-2.06-1.24-.61-.2-1.16-.32-1.71-.41-1.09-.18-2.12-.25-3.14-.28-8.07-.08-15.7,1.28-23.34,2.81-7.61,1.6-15.12,3.63-22.48,6.19-.24,.09-.48,.19-.73,.27,.59,.91,1.1,1.88,1.56,2.89,.08-.03,.15-.06,.22-.08,6.91-2.32,14-4.15,21.15-5.58l1.5-3.12,1.15,.55c.96,.46,1.85,1,2.7,1.59,6.06-1.03,12.19-1.78,18.11-1.63,.9,.04,1.8,.12,2.61,.26,.32,.06,.61,.14,.88,.22-.48,.49-1.23,1-2.01,1.52-3.02,2.14-6.3,3.91-9.72,5.34-1.16,.49-2.35,.93-3.54,1.35,.67,1.25,1.2,2.56,1.6,3.92,1.21-.44,2.42-.9,3.6-1.41,3.67-1.56,7.18-3.54,10.42-5.89,.8-.57,1.65-1.12,2.53-2.01,.43-.46,.88-.92,1.26-1.8,.18-.43,.34-1.03,.25-1.72-.08-.69-.45-1.35-.82-1.74Zm-71.26,24.41l.85,2.95c-.87-.12-1.73-.26-2.61-.42-.99-.21-1.99-.44-3.06-.9-.54-.26-1.11-.53-1.68-1.15-.62-.58-.92-1.88-.62-2.69,.54-1.57,1.42-2.23,2.18-2.97,.76-.67,1.55-1.29,2.36-1.89,.15-.11,.31-.21,.46-.31l.88,3.06c-.6,.44-1.2,.89-1.76,1.37-.65,.53-1.25,1.24-1.33,1.52,0,.01,0,0,0,.01,.09,.1,.37,.29,.69,.44,.7,.32,1.58,.56,2.46,.76,.39,.08,.79,.14,1.18,.21Zm25.47,5.99c.88,.18,1.75,.37,2.63,.58l.98-2.04c-1.43-.38-2.87-.73-4.32-1.03l.72,2.49Zm-35.14-24.48c-3.33-1.63-6.64-3.49-9.23-5.89-2.52-2.33-4.45-5.55-3.78-8.52,.57-3.05,3.35-5.73,6.27-7.84,2.99-2.13,6.36-3.88,9.8-5.45,6.93-3.09,14.24-5.46,21.61-7.53,14.79-4.07,29.89-7.2,45.08-9.65,.11-.02,.19-.12,.18-.23-.01-.12-.12-.2-.23-.19-7.67,.79-15.31,1.91-22.92,3.19-7.61,1.28-15.19,2.78-22.7,4.66-7.51,1.87-14.97,4.04-22.21,7.02-3.6,1.52-7.19,3.2-10.5,5.5-1.66,1.15-3.26,2.44-4.67,4.02-1.4,1.57-2.64,3.5-3.12,5.79-.54,2.29-.09,4.74,.86,6.72,.94,2.01,2.26,3.7,3.79,5.17,3.03,2.9,6.51,4.9,10.03,6.73,2.63,1.32,5.33,2.45,8.08,3.45l-1.39-4.85c-1.68-.65-3.34-1.34-4.95-2.11Zm30.39,7.98l1.29,4.48c4,.32,8.02,.4,12.04,.16l2.18-4.55c-.66,.06-1.33,.11-2,.15-4.49,.31-9.01,.17-13.52-.25Zm26.05,32.96c.3,3.67-.91,7.38-3.07,10.46-2.1,3-4.92,5.53-8.06,7.47l-.18,.37s0,0,0,0h0c-.06,.02-.13,.03-.19,.05,0,.02,0,.04,0,.06,.06,.1,.18,.14,.29,.09,3.43-1.85,6.51-4.34,8.93-7.45,2.42-3.09,3.96-7.05,3.82-11.11-.04-1.96-.5-3.92-1.31-5.73l-1,2.08c.42,1.19,.68,2.44,.76,3.73Zm-40.85-31.1c1.68,.42,3.36,.81,5.05,1.13,3.64,.7,7.33,1.2,11.03,1.5l-1.29-4.48c-2.77-.26-5.54-.61-8.28-1.1l-5.28-1.11c-4.04-.96-8.02-2.16-11.87-3.65l1.39,4.85c1.66,.61,3.34,1.18,5.03,1.69l4.21,1.18Zm30.3-1.75l-2.18,4.55c.15,0,.31,0,.46-.01,6.61-.43,13.22-1.69,19.5-3.96-.39-1.36-.93-2.67-1.6-3.92-5.2,1.81-10.66,2.89-16.19,3.35Zm-10.76,16.41l-.72-2.49c-4.86-1.01-9.77-1.6-14.64-2.16-3.41-.41-6.85-.74-10.12-1.34l.85,2.95c3.04,.43,6.02,.66,9,.96,5.25,.51,10.51,1.05,15.62,2.09Z"/></g></svg>